solid CATIA STL
  facet normal  0.000000e+000  -0.000000e+000  9.999999e-001
    outer loop
      vertex  4.210745e-001  2.210248e+000  1.200000e+001
      vertex  8.272703e-001  2.092397e+000  1.200000e+001
      vertex  4.524135e+000  2.128896e+000  1.200000e+001
    endloop
  endfacet
  facet normal  -0.000000e+000  -0.000000e+000  1.000000e+000
    outer loop
      vertex -1.191585e-015  2.250000e+000  1.200000e+001
      vertex  4.210745e-001  2.210248e+000  1.200000e+001
      vertex  4.524135e+000  2.128896e+000  1.200000e+001
    endloop
  endfacet
  facet normal  0.000000e+000  0.000000e+000  1.000000e+000
    outer loop
      vertex -1.191585e-015  2.250000e+000  1.200000e+001
      vertex  4.524135e+000  2.128896e+000  1.200000e+001
      vertex  4.221640e+000  2.679134e+000  1.200000e+001
    endloop
  endfacet
  facet normal  0.000000e+000  0.000000e+000  1.000000e+000
    outer loop
      vertex -1.191585e-015  2.250000e+000  1.200000e+001
      vertex  4.221640e+000  2.679134e+000  1.200000e+001
      vertex  3.852566e+000  3.187120e+000  1.200000e+001
    endloop
  endfacet
  facet normal  0.000000e+000  0.000000e+000  1.000000e+000
    outer loop
      vertex -1.191585e-015  2.250000e+000  1.200000e+001
      vertex  3.852566e+000  3.187120e+000  1.200000e+001
      vertex  3.422735e+000  3.644843e+000  1.200000e+001
    endloop
  endfacet
  facet normal  0.000000e+000  0.000000e+000  1.000000e+000
    outer loop
      vertex -1.191585e-015  2.250000e+000  1.200000e+001
      vertex  3.422735e+000  3.644843e+000  1.200000e+001
      vertex  2.938926e+000  4.045085e+000  1.200000e+001
    endloop
  endfacet
  facet normal  0.000000e+000  0.000000e+000  1.000000e+000
    outer loop
      vertex -1.191585e-015  2.250000e+000  1.200000e+001
      vertex  2.938926e+000  4.045085e+000  1.200000e+001
      vertex  2.408768e+000  4.381534e+000  1.200000e+001
    endloop
  endfacet
  facet normal  0.000000e+000  0.000000e+000  1.000000e+000
    outer loop
      vertex -1.191585e-015  2.250000e+000  1.200000e+001
      vertex  2.408768e+000  4.381534e+000  1.200000e+001
      vertex  1.840623e+000  4.648882e+000  1.200000e+001
    endloop
  endfacet
  facet normal  0.000000e+000  0.000000e+000  1.000000e+000
    outer loop
      vertex -1.191585e-015  2.250000e+000  1.200000e+001
      vertex  1.840623e+000  4.648882e+000  1.200000e+001
      vertex  1.243449e+000  4.842916e+000  1.200000e+001
    endloop
  endfacet
  facet normal  0.000000e+000  0.000000e+000  1.000000e+000
    outer loop
      vertex -1.191585e-015  2.250000e+000  1.200000e+001
      vertex  1.243449e+000  4.842916e+000  1.200000e+001
      vertex  6.266662e-001  4.960574e+000  1.200000e+001
    endloop
  endfacet
  facet normal  0.000000e+000  0.000000e+000  1.000000e+000
    outer loop
      vertex -1.191585e-015  2.250000e+000  1.200000e+001
      vertex  6.266662e-001  4.960574e+000  1.200000e+001
      vertex  1.530758e-015  5.000000e+000  1.200000e+001
    endloop
  endfacet
  facet normal  0.000000e+000  -0.000000e+000  1.000000e+000
    outer loop
      vertex -9.184548e-016 -5.000000e+000  1.200000e+001
      vertex  6.266662e-001 -4.960574e+000  1.200000e+001
      vertex  1.243449e+000 -4.842916e+000  1.200000e+001
    endloop
  endfacet
  facet normal  0.000000e+000  -0.000000e+000  1.000000e+000
    outer loop
      vertex -9.184548e-016 -5.000000e+000  1.200000e+001
      vertex  1.243449e+000 -4.842916e+000  1.200000e+001
      vertex  1.840623e+000 -4.648882e+000  1.200000e+001
    endloop
  endfacet
  facet normal  0.000000e+000  -0.000000e+000  9.999999e-001
    outer loop
      vertex -9.184548e-016 -5.000000e+000  1.200000e+001
      vertex  1.840623e+000 -4.648882e+000  1.200000e+001
      vertex  2.408768e+000 -4.381534e+000  1.200000e+001
    endloop
  endfacet
  facet normal  0.000000e+000  -0.000000e+000  1.000000e+000
    outer loop
      vertex -9.184548e-016 -5.000000e+000  1.200000e+001
      vertex  2.408768e+000 -4.381534e+000  1.200000e+001
      vertex  2.938926e+000 -4.045085e+000  1.200000e+001
    endloop
  endfacet
  facet normal  0.000000e+000  -0.000000e+000  1.000000e+000
    outer loop
      vertex -9.184548e-016 -5.000000e+000  1.200000e+001
      vertex  2.938926e+000 -4.045085e+000  1.200000e+001
      vertex  3.422735e+000 -3.644843e+000  1.200000e+001
    endloop
  endfacet
  facet normal  0.000000e+000  -0.000000e+000  9.999999e-001
    outer loop
      vertex -9.184548e-016 -5.000000e+000  1.200000e+001
      vertex  3.422735e+000 -3.644843e+000  1.200000e+001
      vertex  3.852566e+000 -3.187120e+000  1.200000e+001
    endloop
  endfacet
  facet normal  0.000000e+000  -0.000000e+000  1.000000e+000
    outer loop
      vertex -9.184548e-016 -5.000000e+000  1.200000e+001
      vertex  3.852566e+000 -3.187120e+000  1.200000e+001
      vertex  4.221640e+000 -2.679134e+000  1.200000e+001
    endloop
  endfacet
  facet normal  -0.000000e+000  0.000000e+000  1.000000e+000
    outer loop
      vertex  4.524135e+000  2.128896e+000  1.200000e+001
      vertex  8.272703e-001  2.092397e+000  1.200000e+001
      vertex  4.755282e+000  1.545085e+000  1.200000e+001
    endloop
  endfacet
  facet normal  0.000000e+000  0.000000e+000  1.000000e+000
    outer loop
      vertex  4.755282e+000  1.545085e+000  1.200000e+001
      vertex  8.272703e-001  2.092397e+000  1.200000e+001
      vertex  1.204234e+000  1.900610e+000  1.200000e+001
    endloop
  endfacet
  facet normal  0.000000e+000  0.000000e+000  9.999999e-001
    outer loop
      vertex  4.755282e+000  1.545085e+000  1.200000e+001
      vertex  1.204234e+000  1.900610e+000  1.200000e+001
      vertex  1.538647e+000  1.641666e+000  1.200000e+001
    endloop
  endfacet
  facet normal  0.000000e+000  0.000000e+000  1.000000e+000
    outer loop
      vertex  4.755282e+000  1.545085e+000  1.200000e+001
      vertex  1.538647e+000  1.641666e+000  1.200000e+001
      vertex  4.911436e+000  9.369066e-001  1.200000e+001
    endloop
  endfacet
  facet normal  0.000000e+000  0.000000e+000  1.000000e+000
    outer loop
      vertex  4.911436e+000  9.369066e-001  1.200000e+001
      vertex  1.538647e+000  1.641666e+000  1.200000e+001
      vertex  1.818691e+000  1.324713e+000  1.200000e+001
    endloop
  endfacet
  facet normal  0.000000e+000  0.000000e+000  1.000000e+000
    outer loop
      vertex  4.911436e+000  9.369066e-001  1.200000e+001
      vertex  1.818691e+000  1.324713e+000  1.200000e+001
      vertex  2.034472e+000  9.609505e-001  1.200000e+001
    endloop
  endfacet
  facet normal  0.000000e+000  0.000000e+000  1.000000e+000
    outer loop
      vertex  4.911436e+000  9.369066e-001  1.200000e+001
      vertex  2.034472e+000  9.609505e-001  1.200000e+001
      vertex  4.990134e+000  3.139526e-001  1.200000e+001
    endloop
  endfacet
  facet normal  0.000000e+000  0.000000e+000  1.000000e+000
    outer loop
      vertex  4.990134e+000  3.139526e-001  1.200000e+001
      vertex  2.034472e+000  9.609505e-001  1.200000e+001
      vertex  2.178364e+000  5.632333e-001  1.200000e+001
    endloop
  endfacet
  facet normal  0.000000e+000  0.000000e+000  1.000000e+000
    outer loop
      vertex  4.990134e+000  3.139526e-001  1.200000e+001
      vertex  2.178364e+000  5.632333e-001  1.200000e+001
      vertex  2.245283e+000  1.456141e-001  1.200000e+001
    endloop
  endfacet
  facet normal  -0.000000e+000  0.000000e+000  1.000000e+000
    outer loop
      vertex  4.990134e+000  3.139526e-001  1.200000e+001
      vertex  2.245283e+000  1.456141e-001  1.200000e+001
      vertex  4.990134e+000 -3.139526e-001  1.200000e+001
    endloop
  endfacet
  facet normal  0.000000e+000  0.000000e+000  1.000000e+000
    outer loop
      vertex  4.990134e+000 -3.139526e-001  1.200000e+001
      vertex  2.245283e+000  1.456141e-001  1.200000e+001
      vertex  2.232865e+000 -2.771504e-001  1.200000e+001
    endloop
  endfacet
  facet normal  0.000000e+000  0.000000e+000  1.000000e+000
    outer loop
      vertex  4.990134e+000 -3.139526e-001  1.200000e+001
      vertex  2.232865e+000 -2.771504e-001  1.200000e+001
      vertex  4.911436e+000 -9.369066e-001  1.200000e+001
    endloop
  endfacet
  facet normal  0.000000e+000  0.000000e+000  1.000000e+000
    outer loop
      vertex  4.911436e+000 -9.369066e-001  1.200000e+001
      vertex  2.232865e+000 -2.771504e-001  1.200000e+001
      vertex  2.141549e+000 -6.901217e-001  1.200000e+001
    endloop
  endfacet
  facet normal  0.000000e+000  0.000000e+000  1.000000e+000
    outer loop
      vertex  4.911436e+000 -9.369066e-001  1.200000e+001
      vertex  2.141549e+000 -6.901217e-001  1.200000e+001
      vertex  1.974561e+000 -1.078707e+000  1.200000e+001
    endloop
  endfacet
  facet normal  -0.000000e+000  0.000000e+000  1.000000e+000
    outer loop
      vertex  4.911436e+000 -9.369066e-001  1.200000e+001
      vertex  1.974561e+000 -1.078707e+000  1.200000e+001
      vertex  4.755282e+000 -1.545085e+000  1.200000e+001
    endloop
  endfacet
  facet normal  0.000000e+000  0.000000e+000  1.000000e+000
    outer loop
      vertex  4.755282e+000 -1.545085e+000  1.200000e+001
      vertex  1.974561e+000 -1.078707e+000  1.200000e+001
      vertex  1.751707e+000 -1.412099e+000  1.200000e+001
    endloop
  endfacet
  facet normal  0.000000e+000  0.000000e+000  9.999999e-001
    outer loop
      vertex  4.755282e+000 -1.545085e+000  1.200000e+001
      vertex  1.751707e+000 -1.412099e+000  1.200000e+001
      vertex  4.524135e+000 -2.128896e+000  1.200000e+001
    endloop
  endfacet
  facet normal  0.000000e+000  0.000000e+000  1.000000e+000
    outer loop
      vertex  4.524135e+000 -2.128896e+000  1.200000e+001
      vertex  1.751707e+000 -1.412099e+000  1.200000e+001
      vertex  1.473209e+000 -1.700634e+000  1.200000e+001
    endloop
  endfacet
  facet normal  0.000000e+000  0.000000e+000  1.000000e+000
    outer loop
      vertex  4.524135e+000 -2.128896e+000  1.200000e+001
      vertex  1.473209e+000 -1.700634e+000  1.200000e+001
      vertex  1.147913e+000 -1.935148e+000  1.200000e+001
    endloop
  endfacet
  facet normal  0.000000e+000  -0.000000e+000  1.000000e+000
    outer loop
      vertex -2.244763e-015 -2.250000e+000  1.200000e+001
      vertex -9.184548e-016 -5.000000e+000  1.200000e+001
      vertex  3.994204e-001 -2.214264e+000  1.200000e+001
    endloop
  endfacet
  facet normal  0.000000e+000  0.000000e+000  1.000000e+000
    outer loop
      vertex  3.994204e-001 -2.214264e+000  1.200000e+001
      vertex -9.184548e-016 -5.000000e+000  1.200000e+001
      vertex  4.221640e+000 -2.679134e+000  1.200000e+001
    endloop
  endfacet
  facet normal  0.000000e+000  0.000000e+000  1.000000e+000
    outer loop
      vertex  3.994204e-001 -2.214264e+000  1.200000e+001
      vertex  4.221640e+000 -2.679134e+000  1.200000e+001
      vertex  7.861530e-001 -2.108190e+000  1.200000e+001
    endloop
  endfacet
  facet normal  0.000000e+000  0.000000e+000  1.000000e+000
    outer loop
      vertex  7.861530e-001 -2.108190e+000  1.200000e+001
      vertex  4.221640e+000 -2.679134e+000  1.200000e+001
      vertex  4.524135e+000 -2.128896e+000  1.200000e+001
    endloop
  endfacet
  facet normal  0.000000e+000  0.000000e+000  9.999999e-001
    outer loop
      vertex  7.861530e-001 -2.108190e+000  1.200000e+001
      vertex  4.524135e+000 -2.128896e+000  1.200000e+001
      vertex  1.147913e+000 -1.935148e+000  1.200000e+001
    endloop
  endfacet
  facet normal  0.000000e+000  0.000000e+000 -1.000000e+000
    outer loop
      vertex  9.848078e+000 -1.736482e+000  0.000000e+000
      vertex  1.751707e+000 -1.412099e+000  0.000000e+000
      vertex  1.974561e+000 -1.078707e+000  0.000000e+000
    endloop
  endfacet
  facet normal  0.000000e+000  -0.000000e+000 -1.000000e+000
    outer loop
      vertex  1.473209e+000 -1.700634e+000  0.000000e+000
      vertex  1.751707e+000 -1.412099e+000  0.000000e+000
      vertex  9.848078e+000 -1.736482e+000  0.000000e+000
    endloop
  endfacet
  facet normal  0.000000e+000  -0.000000e+000 -9.999999e-001
    outer loop
      vertex -9.544752e-015  2.250000e+000  0.000000e+000
      vertex  1.678664e-015  1.000000e+001  0.000000e+000
      vertex  8.715574e-001  9.961947e+000  0.000000e+000
    endloop
  endfacet
  facet normal  0.000000e+000  -0.000000e+000 -9.999999e-001
    outer loop
      vertex -9.544752e-015  2.250000e+000  0.000000e+000
      vertex  8.715574e-001  9.961947e+000  0.000000e+000
      vertex  1.736482e+000  9.848078e+000  0.000000e+000
    endloop
  endfacet
  facet normal  0.000000e+000  -0.000000e+000 -1.000000e+000
    outer loop
      vertex -9.544752e-015  2.250000e+000  0.000000e+000
      vertex  1.736482e+000  9.848078e+000  0.000000e+000
      vertex  2.588191e+000  9.659258e+000  0.000000e+000
    endloop
  endfacet
  facet normal  0.000000e+000  -0.000000e+000 -1.000000e+000
    outer loop
      vertex -9.544752e-015  2.250000e+000  0.000000e+000
      vertex  2.588191e+000  9.659258e+000  0.000000e+000
      vertex  3.420202e+000  9.396926e+000  0.000000e+000
    endloop
  endfacet
  facet normal  0.000000e+000  -0.000000e+000 -1.000000e+000
    outer loop
      vertex -9.544752e-015  2.250000e+000  0.000000e+000
      vertex  3.420202e+000  9.396926e+000  0.000000e+000
      vertex  4.226182e+000  9.063078e+000  0.000000e+000
    endloop
  endfacet
  facet normal  0.000000e+000  -0.000000e+000 -1.000000e+000
    outer loop
      vertex -9.544752e-015  2.250000e+000  0.000000e+000
      vertex  4.226182e+000  9.063078e+000  0.000000e+000
      vertex  5.000000e+000  8.660254e+000  0.000000e+000
    endloop
  endfacet
  facet normal  0.000000e+000  -0.000000e+000 -1.000000e+000
    outer loop
      vertex -9.544752e-015  2.250000e+000  0.000000e+000
      vertex  5.000000e+000  8.660254e+000  0.000000e+000
      vertex  5.735765e+000  8.191521e+000  0.000000e+000
    endloop
  endfacet
  facet normal  0.000000e+000  -0.000000e+000 -1.000000e+000
    outer loop
      vertex -9.544752e-015  2.250000e+000  0.000000e+000
      vertex  5.735765e+000  8.191521e+000  0.000000e+000
      vertex  6.427876e+000  7.660444e+000  0.000000e+000
    endloop
  endfacet
  facet normal  0.000000e+000  -0.000000e+000 -9.999999e-001
    outer loop
      vertex -9.544752e-015  2.250000e+000  0.000000e+000
      vertex  6.427876e+000  7.660444e+000  0.000000e+000
      vertex  7.071068e+000  7.071068e+000  0.000000e+000
    endloop
  endfacet
  facet normal  0.000000e+000  -0.000000e+000 -1.000000e+000
    outer loop
      vertex -9.544752e-015  2.250000e+000  0.000000e+000
      vertex  7.071068e+000  7.071068e+000  0.000000e+000
      vertex  7.660444e+000  6.427876e+000  0.000000e+000
    endloop
  endfacet
  facet normal  0.000000e+000  -0.000000e+000 -9.999999e-001
    outer loop
      vertex -9.544752e-015  2.250000e+000  0.000000e+000
      vertex  7.660444e+000  6.427876e+000  0.000000e+000
      vertex  8.191521e+000  5.735765e+000  0.000000e+000
    endloop
  endfacet
  facet normal  0.000000e+000  -0.000000e+000 -9.999999e-001
    outer loop
      vertex -9.544752e-015  2.250000e+000  0.000000e+000
      vertex  8.191521e+000  5.735765e+000  0.000000e+000
      vertex  8.660254e+000  5.000000e+000  0.000000e+000
    endloop
  endfacet
  facet normal  0.000000e+000  -0.000000e+000 -1.000000e+000
    outer loop
      vertex -9.544752e-015  2.250000e+000  0.000000e+000
      vertex  8.660254e+000  5.000000e+000  0.000000e+000
      vertex  9.063078e+000  4.226182e+000  0.000000e+000
    endloop
  endfacet
  facet normal  0.000000e+000  -0.000000e+000 -1.000000e+000
    outer loop
      vertex -9.544752e-015  2.250000e+000  0.000000e+000
      vertex  9.063078e+000  4.226182e+000  0.000000e+000
      vertex  9.396926e+000  3.420202e+000  0.000000e+000
    endloop
  endfacet
  facet normal  0.000000e+000  -0.000000e+000 -1.000000e+000
    outer loop
      vertex -9.544752e-015  2.250000e+000  0.000000e+000
      vertex  9.396926e+000  3.420202e+000  0.000000e+000
      vertex  9.659258e+000  2.588191e+000  0.000000e+000
    endloop
  endfacet
  facet normal  0.000000e+000  -0.000000e+000 -1.000000e+000
    outer loop
      vertex -9.544752e-015  2.250000e+000  0.000000e+000
      vertex  9.659258e+000  2.588191e+000  0.000000e+000
      vertex  9.848078e+000  1.736482e+000  0.000000e+000
    endloop
  endfacet
  facet normal  0.000000e+000  0.000000e+000 -1.000000e+000
    outer loop
      vertex  9.848078e+000  1.736482e+000  0.000000e+000
      vertex  9.961947e+000  8.715574e-001  0.000000e+000
      vertex  1.818691e+000  1.324713e+000  0.000000e+000
    endloop
  endfacet
  facet normal  0.000000e+000  0.000000e+000 -1.000000e+000
    outer loop
      vertex  9.848078e+000  1.736482e+000  0.000000e+000
      vertex  1.818691e+000  1.324713e+000  0.000000e+000
      vertex  1.538647e+000  1.641666e+000  0.000000e+000
    endloop
  endfacet
  facet normal  0.000000e+000  0.000000e+000 -1.000000e+000
    outer loop
      vertex  9.848078e+000  1.736482e+000  0.000000e+000
      vertex  1.538647e+000  1.641666e+000  0.000000e+000
      vertex  1.204234e+000  1.900610e+000  0.000000e+000
    endloop
  endfacet
  facet normal  0.000000e+000  0.000000e+000 -1.000000e+000
    outer loop
      vertex  9.848078e+000  1.736482e+000  0.000000e+000
      vertex  1.204234e+000  1.900610e+000  0.000000e+000
      vertex  8.272703e-001  2.092397e+000  0.000000e+000
    endloop
  endfacet
  facet normal  0.000000e+000  0.000000e+000 -1.000000e+000
    outer loop
      vertex  9.848078e+000  1.736482e+000  0.000000e+000
      vertex  8.272703e-001  2.092397e+000  0.000000e+000
      vertex  4.210745e-001  2.210248e+000  0.000000e+000
    endloop
  endfacet
  facet normal  0.000000e+000  0.000000e+000 -1.000000e+000
    outer loop
      vertex  9.848078e+000  1.736482e+000  0.000000e+000
      vertex  4.210745e-001  2.210248e+000  0.000000e+000
      vertex -9.544752e-015  2.250000e+000  0.000000e+000
    endloop
  endfacet
  facet normal  0.000000e+000  0.000000e+000 -1.000000e+000
    outer loop
      vertex  9.659258e+000 -2.588191e+000  0.000000e+000
      vertex -1.110027e-014 -2.250000e+000  0.000000e+000
      vertex  3.994204e-001 -2.214264e+000  0.000000e+000
    endloop
  endfacet
  facet normal  0.000000e+000  0.000000e+000 -1.000000e+000
    outer loop
      vertex  9.659258e+000 -2.588191e+000  0.000000e+000
      vertex  3.994204e-001 -2.214264e+000  0.000000e+000
      vertex  7.861530e-001 -2.108190e+000  0.000000e+000
    endloop
  endfacet
  facet normal  0.000000e+000  0.000000e+000 -1.000000e+000
    outer loop
      vertex  9.659258e+000 -2.588191e+000  0.000000e+000
      vertex  7.861530e-001 -2.108190e+000  0.000000e+000
      vertex  1.147913e+000 -1.935148e+000  0.000000e+000
    endloop
  endfacet
  facet normal  0.000000e+000  0.000000e+000 -1.000000e+000
    outer loop
      vertex  9.659258e+000 -2.588191e+000  0.000000e+000
      vertex  1.147913e+000 -1.935148e+000  0.000000e+000
      vertex  1.473209e+000 -1.700634e+000  0.000000e+000
    endloop
  endfacet
  facet normal  0.000000e+000  0.000000e+000 -1.000000e+000
    outer loop
      vertex  9.659258e+000 -2.588191e+000  0.000000e+000
      vertex  1.473209e+000 -1.700634e+000  0.000000e+000
      vertex  9.848078e+000 -1.736482e+000  0.000000e+000
    endloop
  endfacet
  facet normal  0.000000e+000  0.000000e+000 -9.999999e-001
    outer loop
      vertex -3.219762e-015 -1.000000e+001  0.000000e+000
      vertex -1.110027e-014 -2.250000e+000  0.000000e+000
      vertex  9.659258e+000 -2.588191e+000  0.000000e+000
    endloop
  endfacet
  facet normal  0.000000e+000  0.000000e+000 -1.000000e+000
    outer loop
      vertex -3.219762e-015 -1.000000e+001  0.000000e+000
      vertex  9.659258e+000 -2.588191e+000  0.000000e+000
      vertex  9.396926e+000 -3.420202e+000  0.000000e+000
    endloop
  endfacet
  facet normal  0.000000e+000  0.000000e+000 -1.000000e+000
    outer loop
      vertex -3.219762e-015 -1.000000e+001  0.000000e+000
      vertex  9.396926e+000 -3.420202e+000  0.000000e+000
      vertex  9.063078e+000 -4.226182e+000  0.000000e+000
    endloop
  endfacet
  facet normal  0.000000e+000  0.000000e+000 -1.000000e+000
    outer loop
      vertex -3.219762e-015 -1.000000e+001  0.000000e+000
      vertex  9.063078e+000 -4.226182e+000  0.000000e+000
      vertex  8.660254e+000 -5.000000e+000  0.000000e+000
    endloop
  endfacet
  facet normal  0.000000e+000  0.000000e+000 -1.000000e+000
    outer loop
      vertex -3.219762e-015 -1.000000e+001  0.000000e+000
      vertex  8.660254e+000 -5.000000e+000  0.000000e+000
      vertex  8.191521e+000 -5.735765e+000  0.000000e+000
    endloop
  endfacet
  facet normal  0.000000e+000  0.000000e+000 -1.000000e+000
    outer loop
      vertex -3.219762e-015 -1.000000e+001  0.000000e+000
      vertex  8.191521e+000 -5.735765e+000  0.000000e+000
      vertex  7.660444e+000 -6.427876e+000  0.000000e+000
    endloop
  endfacet
  facet normal  0.000000e+000  0.000000e+000 -1.000000e+000
    outer loop
      vertex -3.219762e-015 -1.000000e+001  0.000000e+000
      vertex  7.660444e+000 -6.427876e+000  0.000000e+000
      vertex  7.071068e+000 -7.071068e+000  0.000000e+000
    endloop
  endfacet
  facet normal  0.000000e+000  0.000000e+000 -1.000000e+000
    outer loop
      vertex -3.219762e-015 -1.000000e+001  0.000000e+000
      vertex  7.071068e+000 -7.071068e+000  0.000000e+000
      vertex  6.427876e+000 -7.660444e+000  0.000000e+000
    endloop
  endfacet
  facet normal  0.000000e+000  0.000000e+000 -1.000000e+000
    outer loop
      vertex -3.219762e-015 -1.000000e+001  0.000000e+000
      vertex  6.427876e+000 -7.660444e+000  0.000000e+000
      vertex  5.735765e+000 -8.191521e+000  0.000000e+000
    endloop
  endfacet
  facet normal  0.000000e+000  0.000000e+000 -9.999999e-001
    outer loop
      vertex -3.219762e-015 -1.000000e+001  0.000000e+000
      vertex  5.735765e+000 -8.191521e+000  0.000000e+000
      vertex  5.000000e+000 -8.660254e+000  0.000000e+000
    endloop
  endfacet
  facet normal  0.000000e+000  0.000000e+000 -1.000000e+000
    outer loop
      vertex -3.219762e-015 -1.000000e+001  0.000000e+000
      vertex  5.000000e+000 -8.660254e+000  0.000000e+000
      vertex  4.226182e+000 -9.063078e+000  0.000000e+000
    endloop
  endfacet
  facet normal  0.000000e+000  0.000000e+000 -1.000000e+000
    outer loop
      vertex -3.219762e-015 -1.000000e+001  0.000000e+000
      vertex  4.226182e+000 -9.063078e+000  0.000000e+000
      vertex  3.420202e+000 -9.396926e+000  0.000000e+000
    endloop
  endfacet
  facet normal  0.000000e+000  0.000000e+000 -1.000000e+000
    outer loop
      vertex -3.219762e-015 -1.000000e+001  0.000000e+000
      vertex  3.420202e+000 -9.396926e+000  0.000000e+000
      vertex  2.588191e+000 -9.659258e+000  0.000000e+000
    endloop
  endfacet
  facet normal  0.000000e+000  0.000000e+000 -1.000000e+000
    outer loop
      vertex -3.219762e-015 -1.000000e+001  0.000000e+000
      vertex  2.588191e+000 -9.659258e+000  0.000000e+000
      vertex  1.736482e+000 -9.848078e+000  0.000000e+000
    endloop
  endfacet
  facet normal  0.000000e+000  0.000000e+000 -1.000000e+000
    outer loop
      vertex -3.219762e-015 -1.000000e+001  0.000000e+000
      vertex  1.736482e+000 -9.848078e+000  0.000000e+000
      vertex  8.715574e-001 -9.961947e+000  0.000000e+000
    endloop
  endfacet
  facet normal  0.000000e+000  0.000000e+000 -1.000000e+000
    outer loop
      vertex  1.000000e+001 -2.449213e-015  0.000000e+000
      vertex  2.178364e+000  5.632333e-001  0.000000e+000
      vertex  9.961947e+000  8.715574e-001  0.000000e+000
    endloop
  endfacet
  facet normal  -0.000000e+000  0.000000e+000 -1.000000e+000
    outer loop
      vertex  9.961947e+000  8.715574e-001  0.000000e+000
      vertex  2.178364e+000  5.632333e-001  0.000000e+000
      vertex  2.034472e+000  9.609505e-001  0.000000e+000
    endloop
  endfacet
  facet normal  0.000000e+000  0.000000e+000 -1.000000e+000
    outer loop
      vertex  9.961947e+000  8.715574e-001  0.000000e+000
      vertex  2.034472e+000  9.609505e-001  0.000000e+000
      vertex  1.818691e+000  1.324713e+000  0.000000e+000
    endloop
  endfacet
  facet normal  0.000000e+000  0.000000e+000 -9.999999e-001
    outer loop
      vertex  9.961947e+000 -8.715574e-001  0.000000e+000
      vertex  2.232865e+000 -2.771504e-001  0.000000e+000
      vertex  1.000000e+001 -2.449213e-015  0.000000e+000
    endloop
  endfacet
  facet normal  -0.000000e+000  0.000000e+000 -1.000000e+000
    outer loop
      vertex  1.000000e+001 -2.449213e-015  0.000000e+000
      vertex  2.232865e+000 -2.771504e-001  0.000000e+000
      vertex  2.245283e+000  1.456141e-001  0.000000e+000
    endloop
  endfacet
  facet normal  0.000000e+000  0.000000e+000 -9.999999e-001
    outer loop
      vertex  1.000000e+001 -2.449213e-015  0.000000e+000
      vertex  2.245283e+000  1.456141e-001  0.000000e+000
      vertex  2.178364e+000  5.632333e-001  0.000000e+000
    endloop
  endfacet
  facet normal  0.000000e+000  0.000000e+000 -1.000000e+000
    outer loop
      vertex  9.848078e+000 -1.736482e+000  0.000000e+000
      vertex  1.974561e+000 -1.078707e+000  0.000000e+000
      vertex  9.961947e+000 -8.715574e-001  0.000000e+000
    endloop
  endfacet
  facet normal  -0.000000e+000  0.000000e+000 -1.000000e+000
    outer loop
      vertex  9.961947e+000 -8.715574e-001  0.000000e+000
      vertex  1.974561e+000 -1.078707e+000  0.000000e+000
      vertex  2.141549e+000 -6.901217e-001  0.000000e+000
    endloop
  endfacet
  facet normal  0.000000e+000  0.000000e+000 -1.000000e+000
    outer loop
      vertex  9.961947e+000 -8.715574e-001  0.000000e+000
      vertex  2.141549e+000 -6.901217e-001  0.000000e+000
      vertex  2.232865e+000 -2.771504e-001  0.000000e+000
    endloop
  endfacet
  facet normal -1.000000e+000  9.899430e-016  6.960972e-016
    outer loop
      vertex -1.191585e-015  2.250000e+000  1.200000e+001
      vertex  1.530758e-015  5.000000e+000  1.200000e+001
      vertex -9.544752e-015  2.250000e+000  0.000000e+000
    endloop
  endfacet
  facet normal -9.999999e-001 -3.906860e-016  1.012491e-015
    outer loop
      vertex -9.544752e-015  2.250000e+000  0.000000e+000
      vertex  1.530758e-015  5.000000e+000  1.200000e+001
      vertex -8.594156e-015  5.000000e+000  2.000000e+000
    endloop
  endfacet
  facet normal -1.000000e+000  1.448183e-015 -1.515953e-015
    outer loop
      vertex -9.544752e-015  2.250000e+000  0.000000e+000
      vertex -8.594156e-015  5.000000e+000  2.000000e+000
      vertex  1.678664e-015  1.000000e+001  0.000000e+000
    endloop
  endfacet
  facet normal -1.000000e+000  2.054564e-015  0.000000e+000
    outer loop
      vertex  1.678664e-015  1.000000e+001  0.000000e+000
      vertex -8.594156e-015  5.000000e+000  2.000000e+000
      vertex  1.678664e-015  1.000000e+001  2.000000e+000
    endloop
  endfacet
  facet normal -1.000000e+000 -1.016840e-015  -0.000000e+000
    outer loop
      vertex -3.219762e-015 -1.000000e+001  0.000000e+000
      vertex -3.219762e-015 -1.000000e+001  2.000000e+000
      vertex -1.110027e-014 -2.250000e+000  0.000000e+000
    endloop
  endfacet
  facet normal -1.000000e+000  4.602615e-016  5.723768e-015
    outer loop
      vertex -1.110027e-014 -2.250000e+000  0.000000e+000
      vertex -3.219762e-015 -1.000000e+001  2.000000e+000
      vertex -9.184548e-016 -5.000000e+000  2.000000e+000
    endloop
  endfacet
  facet normal -1.000000e+000 -3.165782e-015  7.379591e-016
    outer loop
      vertex -1.110027e-014 -2.250000e+000  0.000000e+000
      vertex -9.184548e-016 -5.000000e+000  2.000000e+000
      vertex -2.244763e-015 -2.250000e+000  1.200000e+001
    endloop
  endfacet
  facet normal -9.999999e-001 -4.822938e-016  0.000000e+000
    outer loop
      vertex -2.244763e-015 -2.250000e+000  1.200000e+001
      vertex -9.184548e-016 -5.000000e+000  2.000000e+000
      vertex -9.184548e-016 -5.000000e+000  1.200000e+001
    endloop
  endfacet
  facet normal -8.911446e-002  9.960214e-001  6.576283e-017
    outer loop
      vertex -1.110027e-014 -2.250000e+000  0.000000e+000
      vertex -2.244763e-015 -2.250000e+000  1.200000e+001
      vertex  3.994204e-001 -2.214264e+000  0.000000e+000
    endloop
  endfacet
  facet normal -8.911447e-002  9.960213e-001  0.000000e+000
    outer loop
      vertex  3.994204e-001 -2.214264e+000  0.000000e+000
      vertex -2.244763e-015 -2.250000e+000  1.200000e+001
      vertex  3.994204e-001 -2.214264e+000  1.200000e+001
    endloop
  endfacet
  facet normal -2.645134e-001  9.643820e-001  0.000000e+000
    outer loop
      vertex  3.994204e-001 -2.214264e+000  0.000000e+000
      vertex  3.994204e-001 -2.214264e+000  1.200000e+001
      vertex  7.861530e-001 -2.108190e+000  0.000000e+000
    endloop
  endfacet
  facet normal -2.645134e-001  9.643820e-001  0.000000e+000
    outer loop
      vertex  7.861530e-001 -2.108190e+000  0.000000e+000
      vertex  3.994204e-001 -2.214264e+000  1.200000e+001
      vertex  7.861530e-001 -2.108190e+000  1.200000e+001
    endloop
  endfacet
  facet normal -4.315091e-001  9.021086e-001  0.000000e+000
    outer loop
      vertex  7.861530e-001 -2.108190e+000  0.000000e+000
      vertex  7.861530e-001 -2.108190e+000  1.200000e+001
      vertex  1.147913e+000 -1.935148e+000  0.000000e+000
    endloop
  endfacet
  facet normal -4.315091e-001  9.021086e-001  0.000000e+000
    outer loop
      vertex  1.147913e+000 -1.935148e+000  0.000000e+000
      vertex  7.861530e-001 -2.108190e+000  1.200000e+001
      vertex  1.147913e+000 -1.935148e+000  1.200000e+001
    endloop
  endfacet
  facet normal -5.847983e-001  8.111788e-001  0.000000e+000
    outer loop
      vertex  1.147913e+000 -1.935148e+000  0.000000e+000
      vertex  1.147913e+000 -1.935148e+000  1.200000e+001
      vertex  1.473209e+000 -1.700634e+000  0.000000e+000
    endloop
  endfacet
  facet normal -5.847983e-001  8.111788e-001  0.000000e+000
    outer loop
      vertex  1.473209e+000 -1.700634e+000  0.000000e+000
      vertex  1.147913e+000 -1.935148e+000  1.200000e+001
      vertex  1.473209e+000 -1.700634e+000  1.200000e+001
    endloop
  endfacet
  facet normal -7.195106e-001  6.944815e-001  0.000000e+000
    outer loop
      vertex  1.473209e+000 -1.700634e+000  0.000000e+000
      vertex  1.473209e+000 -1.700634e+000  1.200000e+001
      vertex  1.751707e+000 -1.412099e+000  0.000000e+000
    endloop
  endfacet
  facet normal -7.195106e-001  6.944815e-001  0.000000e+000
    outer loop
      vertex  1.751707e+000 -1.412099e+000  0.000000e+000
      vertex  1.473209e+000 -1.700634e+000  1.200000e+001
      vertex  1.751707e+000 -1.412099e+000  1.200000e+001
    endloop
  endfacet
  facet normal -8.313670e-001  5.557236e-001  0.000000e+000
    outer loop
      vertex  1.751707e+000 -1.412099e+000  0.000000e+000
      vertex  1.751707e+000 -1.412099e+000  1.200000e+001
      vertex  1.974561e+000 -1.078707e+000  0.000000e+000
    endloop
  endfacet
  facet normal -8.313670e-001  5.557236e-001  0.000000e+000
    outer loop
      vertex  1.974561e+000 -1.078707e+000  0.000000e+000
      vertex  1.751707e+000 -1.412099e+000  1.200000e+001
      vertex  1.974561e+000 -1.078707e+000  1.200000e+001
    endloop
  endfacet
  facet normal -9.187582e-001  3.948207e-001  0.000000e+000
    outer loop
      vertex  1.974561e+000 -1.078707e+000  0.000000e+000
      vertex  1.974561e+000 -1.078707e+000  1.200000e+001
      vertex  2.141549e+000 -6.901217e-001  0.000000e+000
    endloop
  endfacet
  facet normal -9.187582e-001  3.948207e-001  0.000000e+000
    outer loop
      vertex  2.141549e+000 -6.901217e-001  0.000000e+000
      vertex  1.974561e+000 -1.078707e+000  1.200000e+001
      vertex  2.141549e+000 -6.901217e-001  1.200000e+001
    endloop
  endfacet
  facet normal -9.764143e-001  2.159053e-001  0.000000e+000
    outer loop
      vertex  2.141549e+000 -6.901217e-001  0.000000e+000
      vertex  2.141549e+000 -6.901217e-001  1.200000e+001
      vertex  2.232865e+000 -2.771504e-001  0.000000e+000
    endloop
  endfacet
  facet normal -9.764143e-001  2.159053e-001  0.000000e+000
    outer loop
      vertex  2.232865e+000 -2.771504e-001  0.000000e+000
      vertex  2.141549e+000 -6.901217e-001  1.200000e+001
      vertex  2.232865e+000 -2.771504e-001  1.200000e+001
    endloop
  endfacet
  facet normal -9.995689e-001  2.936018e-002  0.000000e+000
    outer loop
      vertex  2.232865e+000 -2.771504e-001  0.000000e+000
      vertex  2.232865e+000 -2.771504e-001  1.200000e+001
      vertex  2.245283e+000  1.456141e-001  0.000000e+000
    endloop
  endfacet
  facet normal -9.995689e-001  2.936018e-002  0.000000e+000
    outer loop
      vertex  2.245283e+000  1.456141e-001  0.000000e+000
      vertex  2.232865e+000 -2.771504e-001  1.200000e+001
      vertex  2.245283e+000  1.456141e-001  1.200000e+001
    endloop
  endfacet
  facet normal -9.874036e-001 -1.582222e-001  -0.000000e+000
    outer loop
      vertex  2.245283e+000  1.456141e-001  0.000000e+000
      vertex  2.245283e+000  1.456141e-001  1.200000e+001
      vertex  2.178364e+000  5.632333e-001  0.000000e+000
    endloop
  endfacet
  facet normal -9.874036e-001 -1.582222e-001  0.000000e+000
    outer loop
      vertex  2.178364e+000  5.632333e-001  0.000000e+000
      vertex  2.245283e+000  1.456141e-001  1.200000e+001
      vertex  2.178364e+000  5.632333e-001  1.200000e+001
    endloop
  endfacet
  facet normal -9.403483e-001 -3.402132e-001  -0.000000e+000
    outer loop
      vertex  2.178364e+000  5.632333e-001  0.000000e+000
      vertex  2.178364e+000  5.632333e-001  1.200000e+001
      vertex  2.034472e+000  9.609505e-001  0.000000e+000
    endloop
  endfacet
  facet normal -9.403483e-001 -3.402132e-001  0.000000e+000
    outer loop
      vertex  2.034472e+000  9.609505e-001  0.000000e+000
      vertex  2.178364e+000  5.632333e-001  1.200000e+001
      vertex  2.034472e+000  9.609505e-001  1.200000e+001
    endloop
  endfacet
  facet normal -8.600656e-001 -5.101835e-001  -0.000000e+000
    outer loop
      vertex  2.034472e+000  9.609505e-001  0.000000e+000
      vertex  2.034472e+000  9.609505e-001  1.200000e+001
      vertex  1.818691e+000  1.324713e+000  0.000000e+000
    endloop
  endfacet
  facet normal -8.600656e-001 -5.101835e-001  0.000000e+000
    outer loop
      vertex  1.818691e+000  1.324713e+000  0.000000e+000
      vertex  2.034472e+000  9.609505e-001  1.200000e+001
      vertex  1.818691e+000  1.324713e+000  1.200000e+001
    endloop
  endfacet
  facet normal -7.493923e-001 -6.621263e-001  -0.000000e+000
    outer loop
      vertex  1.818691e+000  1.324713e+000  0.000000e+000
      vertex  1.818691e+000  1.324713e+000  1.200000e+001
      vertex  1.538647e+000  1.641666e+000  0.000000e+000
    endloop
  endfacet
  facet normal -7.493923e-001 -6.621263e-001  0.000000e+000
    outer loop
      vertex  1.538647e+000  1.641666e+000  0.000000e+000
      vertex  1.818691e+000  1.324713e+000  1.200000e+001
      vertex  1.538647e+000  1.641666e+000  1.200000e+001
    endloop
  endfacet
  facet normal -6.122394e-001 -7.906725e-001  -0.000000e+000
    outer loop
      vertex  1.538647e+000  1.641666e+000  0.000000e+000
      vertex  1.538647e+000  1.641666e+000  1.200000e+001
      vertex  1.204234e+000  1.900610e+000  0.000000e+000
    endloop
  endfacet
  facet normal -6.122394e-001 -7.906725e-001  0.000000e+000
    outer loop
      vertex  1.204234e+000  1.900610e+000  0.000000e+000
      vertex  1.538647e+000  1.641666e+000  1.200000e+001
      vertex  1.204234e+000  1.900610e+000  1.200000e+001
    endloop
  endfacet
  facet normal -4.534530e-001 -8.912802e-001  -0.000000e+000
    outer loop
      vertex  1.204234e+000  1.900610e+000  0.000000e+000
      vertex  1.204234e+000  1.900610e+000  1.200000e+001
      vertex  8.272703e-001  2.092397e+000  0.000000e+000
    endloop
  endfacet
  facet normal -4.534530e-001 -8.912802e-001  0.000000e+000
    outer loop
      vertex  8.272703e-001  2.092397e+000  0.000000e+000
      vertex  1.204234e+000  1.900610e+000  1.200000e+001
      vertex  8.272703e-001  2.092397e+000  1.200000e+001
    endloop
  endfacet
  facet normal -2.786433e-001 -9.603947e-001  -0.000000e+000
    outer loop
      vertex  8.272703e-001  2.092397e+000  0.000000e+000
      vertex  8.272703e-001  2.092397e+000  1.200000e+001
      vertex  4.210745e-001  2.210248e+000  0.000000e+000
    endloop
  endfacet
  facet normal -2.786433e-001 -9.603947e-001  0.000000e+000
    outer loop
      vertex  4.210745e-001  2.210248e+000  0.000000e+000
      vertex  8.272703e-001  2.092397e+000  1.200000e+001
      vertex  4.210745e-001  2.210248e+000  1.200000e+001
    endloop
  endfacet
  facet normal -9.398820e-002 -9.955733e-001  -0.000000e+000
    outer loop
      vertex  4.210745e-001  2.210248e+000  0.000000e+000
      vertex  4.210745e-001  2.210248e+000  1.200000e+001
      vertex -9.544752e-015  2.250000e+000  0.000000e+000
    endloop
  endfacet
  facet normal -9.398820e-002 -9.955733e-001  6.542492e-017
    outer loop
      vertex -9.544752e-015  2.250000e+000  0.000000e+000
      vertex  4.210745e-001  2.210248e+000  1.200000e+001
      vertex -1.191585e-015  2.250000e+000  1.200000e+001
    endloop
  endfacet
  facet normal  6.279025e-002  9.980268e-001 -6.357459e-017
    outer loop
      vertex -8.594156e-015  5.000000e+000  2.000000e+000
      vertex  1.530758e-015  5.000000e+000  1.200000e+001
      vertex  6.266662e-001  4.960574e+000  2.000000e+000
    endloop
  endfacet
  facet normal  6.279026e-002  9.980268e-001  -0.000000e+000
    outer loop
      vertex  6.266662e-001  4.960574e+000  2.000000e+000
      vertex  1.530758e-015  5.000000e+000  1.200000e+001
      vertex  6.266662e-001  4.960574e+000  1.200000e+001
    endloop
  endfacet
  facet normal  1.873813e-001  9.822873e-001  0.000000e+000
    outer loop
      vertex  6.266662e-001  4.960574e+000  2.000000e+000
      vertex  6.266662e-001  4.960574e+000  1.200000e+001
      vertex  1.243449e+000  4.842916e+000  2.000000e+000
    endloop
  endfacet
  facet normal  1.873813e-001  9.822873e-001  -0.000000e+000
    outer loop
      vertex  1.243449e+000  4.842916e+000  2.000000e+000
      vertex  6.266662e-001  4.960574e+000  1.200000e+001
      vertex  1.243449e+000  4.842916e+000  1.200000e+001
    endloop
  endfacet
  facet normal  3.090174e-001  9.510564e-001  0.000000e+000
    outer loop
      vertex  1.243449e+000  4.842916e+000  2.000000e+000
      vertex  1.243449e+000  4.842916e+000  1.200000e+001
      vertex  1.840623e+000  4.648882e+000  2.000000e+000
    endloop
  endfacet
  facet normal  3.090174e-001  9.510564e-001  -0.000000e+000
    outer loop
      vertex  1.840623e+000  4.648882e+000  2.000000e+000
      vertex  1.243449e+000  4.842916e+000  1.200000e+001
      vertex  1.840623e+000  4.648882e+000  1.200000e+001
    endloop
  endfacet
  facet normal  4.257789e-001  9.048272e-001  0.000000e+000
    outer loop
      vertex  1.840623e+000  4.648882e+000  2.000000e+000
      vertex  1.840623e+000  4.648882e+000  1.200000e+001
      vertex  2.408768e+000  4.381534e+000  2.000000e+000
    endloop
  endfacet
  facet normal  4.257789e-001  9.048272e-001  -0.000000e+000
    outer loop
      vertex  2.408768e+000  4.381534e+000  2.000000e+000
      vertex  1.840623e+000  4.648882e+000  1.200000e+001
      vertex  2.408768e+000  4.381534e+000  1.200000e+001
    endloop
  endfacet
  facet normal  5.358271e-001  8.443277e-001  0.000000e+000
    outer loop
      vertex  2.408768e+000  4.381534e+000  2.000000e+000
      vertex  2.408768e+000  4.381534e+000  1.200000e+001
      vertex  2.938926e+000  4.045085e+000  2.000000e+000
    endloop
  endfacet
  facet normal  5.358271e-001  8.443277e-001  -0.000000e+000
    outer loop
      vertex  2.938926e+000  4.045085e+000  2.000000e+000
      vertex  2.408768e+000  4.381534e+000  1.200000e+001
      vertex  2.938926e+000  4.045085e+000  1.200000e+001
    endloop
  endfacet
  facet normal  6.374241e-001  7.705132e-001  0.000000e+000
    outer loop
      vertex  2.938926e+000  4.045085e+000  2.000000e+000
      vertex  2.938926e+000  4.045085e+000  1.200000e+001
      vertex  3.422735e+000  3.644843e+000  2.000000e+000
    endloop
  endfacet
  facet normal  6.374241e-001  7.705132e-001  -0.000000e+000
    outer loop
      vertex  3.422735e+000  3.644843e+000  2.000000e+000
      vertex  2.938926e+000  4.045085e+000  1.200000e+001
      vertex  3.422735e+000  3.644843e+000  1.200000e+001
    endloop
  endfacet
  facet normal  7.289686e-001  6.845472e-001  0.000000e+000
    outer loop
      vertex  3.422735e+000  3.644843e+000  2.000000e+000
      vertex  3.422735e+000  3.644843e+000  1.200000e+001
      vertex  3.852566e+000  3.187120e+000  2.000000e+000
    endloop
  endfacet
  facet normal  7.289686e-001  6.845472e-001  -0.000000e+000
    outer loop
      vertex  3.852566e+000  3.187120e+000  2.000000e+000
      vertex  3.422735e+000  3.644843e+000  1.200000e+001
      vertex  3.852566e+000  3.187120e+000  1.200000e+001
    endloop
  endfacet
  facet normal  8.090171e-001  5.877851e-001  0.000000e+000
    outer loop
      vertex  3.852566e+000  3.187120e+000  2.000000e+000
      vertex  3.852566e+000  3.187120e+000  1.200000e+001
      vertex  4.221640e+000  2.679134e+000  2.000000e+000
    endloop
  endfacet
  facet normal  8.090171e-001  5.877851e-001  -0.000000e+000
    outer loop
      vertex  4.221640e+000  2.679134e+000  2.000000e+000
      vertex  3.852566e+000  3.187120e+000  1.200000e+001
      vertex  4.221640e+000  2.679134e+000  1.200000e+001
    endloop
  endfacet
  facet normal  8.763068e-001  4.817536e-001  0.000000e+000
    outer loop
      vertex  4.221640e+000  2.679134e+000  2.000000e+000
      vertex  4.221640e+000  2.679134e+000  1.200000e+001
      vertex  4.524135e+000  2.128896e+000  2.000000e+000
    endloop
  endfacet
  facet normal  8.763068e-001  4.817536e-001  -0.000000e+000
    outer loop
      vertex  4.524135e+000  2.128896e+000  2.000000e+000
      vertex  4.221640e+000  2.679134e+000  1.200000e+001
      vertex  4.524135e+000  2.128896e+000  1.200000e+001
    endloop
  endfacet
  facet normal  9.297765e-001  3.681245e-001  0.000000e+000
    outer loop
      vertex  4.524135e+000  2.128896e+000  2.000000e+000
      vertex  4.524135e+000  2.128896e+000  1.200000e+001
      vertex  4.755282e+000  1.545085e+000  2.000000e+000
    endloop
  endfacet
  facet normal  9.297765e-001  3.681245e-001  -0.000000e+000
    outer loop
      vertex  4.755282e+000  1.545085e+000  2.000000e+000
      vertex  4.524135e+000  2.128896e+000  1.200000e+001
      vertex  4.755282e+000  1.545085e+000  1.200000e+001
    endloop
  endfacet
  facet normal  9.685832e-001  2.486899e-001  0.000000e+000
    outer loop
      vertex  4.755282e+000  1.545085e+000  2.000000e+000
      vertex  4.755282e+000  1.545085e+000  1.200000e+001
      vertex  4.911436e+000  9.369066e-001  2.000000e+000
    endloop
  endfacet
  facet normal  9.685832e-001  2.486899e-001  -0.000000e+000
    outer loop
      vertex  4.911436e+000  9.369066e-001  2.000000e+000
      vertex  4.755282e+000  1.545085e+000  1.200000e+001
      vertex  4.911436e+000  9.369066e-001  1.200000e+001
    endloop
  endfacet
  facet normal  9.921147e-001  1.253337e-001  0.000000e+000
    outer loop
      vertex  4.911436e+000  9.369066e-001  2.000000e+000
      vertex  4.911436e+000  9.369066e-001  1.200000e+001
      vertex  4.990134e+000  3.139526e-001  2.000000e+000
    endloop
  endfacet
  facet normal  9.921147e-001  1.253337e-001  -0.000000e+000
    outer loop
      vertex  4.990134e+000  3.139526e-001  2.000000e+000
      vertex  4.911436e+000  9.369066e-001  1.200000e+001
      vertex  4.990134e+000  3.139526e-001  1.200000e+001
    endloop
  endfacet
  facet normal  1.000000e+000  0.000000e+000  0.000000e+000
    outer loop
      vertex  4.990134e+000  3.139526e-001  2.000000e+000
      vertex  4.990134e+000  3.139526e-001  1.200000e+001
      vertex  4.990134e+000 -3.139526e-001  2.000000e+000
    endloop
  endfacet
  facet normal  1.000000e+000  0.000000e+000  0.000000e+000
    outer loop
      vertex  4.990134e+000 -3.139526e-001  2.000000e+000
      vertex  4.990134e+000  3.139526e-001  1.200000e+001
      vertex  4.990134e+000 -3.139526e-001  1.200000e+001
    endloop
  endfacet
  facet normal  9.921147e-001 -1.253337e-001  0.000000e+000
    outer loop
      vertex  4.990134e+000 -3.139526e-001  2.000000e+000
      vertex  4.990134e+000 -3.139526e-001  1.200000e+001
      vertex  4.911436e+000 -9.369066e-001  2.000000e+000
    endloop
  endfacet
  facet normal  9.921147e-001 -1.253337e-001  0.000000e+000
    outer loop
      vertex  4.911436e+000 -9.369066e-001  2.000000e+000
      vertex  4.990134e+000 -3.139526e-001  1.200000e+001
      vertex  4.911436e+000 -9.369066e-001  1.200000e+001
    endloop
  endfacet
  facet normal  9.685832e-001 -2.486899e-001  0.000000e+000
    outer loop
      vertex  4.911436e+000 -9.369066e-001  2.000000e+000
      vertex  4.911436e+000 -9.369066e-001  1.200000e+001
      vertex  4.755282e+000 -1.545085e+000  2.000000e+000
    endloop
  endfacet
  facet normal  9.685832e-001 -2.486899e-001  0.000000e+000
    outer loop
      vertex  4.755282e+000 -1.545085e+000  2.000000e+000
      vertex  4.911436e+000 -9.369066e-001  1.200000e+001
      vertex  4.755282e+000 -1.545085e+000  1.200000e+001
    endloop
  endfacet
  facet normal  9.297765e-001 -3.681245e-001  0.000000e+000
    outer loop
      vertex  4.755282e+000 -1.545085e+000  2.000000e+000
      vertex  4.755282e+000 -1.545085e+000  1.200000e+001
      vertex  4.524135e+000 -2.128896e+000  2.000000e+000
    endloop
  endfacet
  facet normal  9.297765e-001 -3.681245e-001  0.000000e+000
    outer loop
      vertex  4.524135e+000 -2.128896e+000  2.000000e+000
      vertex  4.755282e+000 -1.545085e+000  1.200000e+001
      vertex  4.524135e+000 -2.128896e+000  1.200000e+001
    endloop
  endfacet
  facet normal  8.763068e-001 -4.817536e-001  0.000000e+000
    outer loop
      vertex  4.524135e+000 -2.128896e+000  2.000000e+000
      vertex  4.524135e+000 -2.128896e+000  1.200000e+001
      vertex  4.221640e+000 -2.679134e+000  2.000000e+000
    endloop
  endfacet
  facet normal  8.763068e-001 -4.817536e-001  0.000000e+000
    outer loop
      vertex  4.221640e+000 -2.679134e+000  2.000000e+000
      vertex  4.524135e+000 -2.128896e+000  1.200000e+001
      vertex  4.221640e+000 -2.679134e+000  1.200000e+001
    endloop
  endfacet
  facet normal  8.090171e-001 -5.877851e-001  0.000000e+000
    outer loop
      vertex  4.221640e+000 -2.679134e+000  2.000000e+000
      vertex  4.221640e+000 -2.679134e+000  1.200000e+001
      vertex  3.852566e+000 -3.187120e+000  2.000000e+000
    endloop
  endfacet
  facet normal  8.090171e-001 -5.877851e-001  0.000000e+000
    outer loop
      vertex  3.852566e+000 -3.187120e+000  2.000000e+000
      vertex  4.221640e+000 -2.679134e+000  1.200000e+001
      vertex  3.852566e+000 -3.187120e+000  1.200000e+001
    endloop
  endfacet
  facet normal  7.289686e-001 -6.845472e-001  0.000000e+000
    outer loop
      vertex  3.852566e+000 -3.187120e+000  2.000000e+000
      vertex  3.852566e+000 -3.187120e+000  1.200000e+001
      vertex  3.422735e+000 -3.644843e+000  2.000000e+000
    endloop
  endfacet
  facet normal  7.289686e-001 -6.845472e-001  0.000000e+000
    outer loop
      vertex  3.422735e+000 -3.644843e+000  2.000000e+000
      vertex  3.852566e+000 -3.187120e+000  1.200000e+001
      vertex  3.422735e+000 -3.644843e+000  1.200000e+001
    endloop
  endfacet
  facet normal  6.374241e-001 -7.705132e-001  0.000000e+000
    outer loop
      vertex  3.422735e+000 -3.644843e+000  2.000000e+000
      vertex  3.422735e+000 -3.644843e+000  1.200000e+001
      vertex  2.938926e+000 -4.045085e+000  2.000000e+000
    endloop
  endfacet
  facet normal  6.374241e-001 -7.705132e-001  0.000000e+000
    outer loop
      vertex  2.938926e+000 -4.045085e+000  2.000000e+000
      vertex  3.422735e+000 -3.644843e+000  1.200000e+001
      vertex  2.938926e+000 -4.045085e+000  1.200000e+001
    endloop
  endfacet
  facet normal  5.358271e-001 -8.443277e-001  0.000000e+000
    outer loop
      vertex  2.938926e+000 -4.045085e+000  2.000000e+000
      vertex  2.938926e+000 -4.045085e+000  1.200000e+001
      vertex  2.408768e+000 -4.381534e+000  2.000000e+000
    endloop
  endfacet
  facet normal  5.358271e-001 -8.443277e-001  0.000000e+000
    outer loop
      vertex  2.408768e+000 -4.381534e+000  2.000000e+000
      vertex  2.938926e+000 -4.045085e+000  1.200000e+001
      vertex  2.408768e+000 -4.381534e+000  1.200000e+001
    endloop
  endfacet
  facet normal  4.257789e-001 -9.048272e-001  0.000000e+000
    outer loop
      vertex  2.408768e+000 -4.381534e+000  2.000000e+000
      vertex  2.408768e+000 -4.381534e+000  1.200000e+001
      vertex  1.840623e+000 -4.648882e+000  2.000000e+000
    endloop
  endfacet
  facet normal  4.257789e-001 -9.048272e-001  0.000000e+000
    outer loop
      vertex  1.840623e+000 -4.648882e+000  2.000000e+000
      vertex  2.408768e+000 -4.381534e+000  1.200000e+001
      vertex  1.840623e+000 -4.648882e+000  1.200000e+001
    endloop
  endfacet
  facet normal  3.090174e-001 -9.510564e-001  0.000000e+000
    outer loop
      vertex  1.840623e+000 -4.648882e+000  2.000000e+000
      vertex  1.840623e+000 -4.648882e+000  1.200000e+001
      vertex  1.243449e+000 -4.842916e+000  2.000000e+000
    endloop
  endfacet
  facet normal  3.090174e-001 -9.510564e-001  0.000000e+000
    outer loop
      vertex  1.243449e+000 -4.842916e+000  2.000000e+000
      vertex  1.840623e+000 -4.648882e+000  1.200000e+001
      vertex  1.243449e+000 -4.842916e+000  1.200000e+001
    endloop
  endfacet
  facet normal  1.873813e-001 -9.822873e-001  0.000000e+000
    outer loop
      vertex  1.243449e+000 -4.842916e+000  2.000000e+000
      vertex  1.243449e+000 -4.842916e+000  1.200000e+001
      vertex  6.266662e-001 -4.960574e+000  2.000000e+000
    endloop
  endfacet
  facet normal  1.873813e-001 -9.822873e-001  0.000000e+000
    outer loop
      vertex  6.266662e-001 -4.960574e+000  2.000000e+000
      vertex  1.243449e+000 -4.842916e+000  1.200000e+001
      vertex  6.266662e-001 -4.960574e+000  1.200000e+001
    endloop
  endfacet
  facet normal  6.279026e-002 -9.980268e-001  0.000000e+000
    outer loop
      vertex  6.266662e-001 -4.960574e+000  2.000000e+000
      vertex  6.266662e-001 -4.960574e+000  1.200000e+001
      vertex -9.184548e-016 -5.000000e+000  2.000000e+000
    endloop
  endfacet
  facet normal  6.279026e-002 -9.980268e-001  0.000000e+000
    outer loop
      vertex -9.184548e-016 -5.000000e+000  2.000000e+000
      vertex  6.266662e-001 -4.960574e+000  1.200000e+001
      vertex -9.184548e-016 -5.000000e+000  1.200000e+001
    endloop
  endfacet
  facet normal  0.000000e+000  -0.000000e+000  1.000000e+000
    outer loop
      vertex  4.524135e+000  2.128896e+000  2.000000e+000
      vertex  4.755282e+000  1.545085e+000  2.000000e+000
      vertex  9.848078e+000  1.736482e+000  2.000000e+000
    endloop
  endfacet
  facet normal  0.000000e+000  -0.000000e+000  1.000000e+000
    outer loop
      vertex -8.594156e-015  5.000000e+000  2.000000e+000
      vertex  6.266662e-001  4.960574e+000  2.000000e+000
      vertex  8.660254e+000  5.000000e+000  2.000000e+000
    endloop
  endfacet
  facet normal  0.000000e+000  0.000000e+000  9.999999e-001
    outer loop
      vertex -8.594156e-015  5.000000e+000  2.000000e+000
      vertex  8.660254e+000  5.000000e+000  2.000000e+000
      vertex  8.191521e+000  5.735765e+000  2.000000e+000
    endloop
  endfacet
  facet normal  0.000000e+000  0.000000e+000  1.000000e+000
    outer loop
      vertex -8.594156e-015  5.000000e+000  2.000000e+000
      vertex  8.191521e+000  5.735765e+000  2.000000e+000
      vertex  7.660444e+000  6.427876e+000  2.000000e+000
    endloop
  endfacet
  facet normal  0.000000e+000  0.000000e+000  9.999999e-001
    outer loop
      vertex -8.594156e-015  5.000000e+000  2.000000e+000
      vertex  7.660444e+000  6.427876e+000  2.000000e+000
      vertex  7.071068e+000  7.071068e+000  2.000000e+000
    endloop
  endfacet
  facet normal  0.000000e+000  0.000000e+000  9.999999e-001
    outer loop
      vertex -8.594156e-015  5.000000e+000  2.000000e+000
      vertex  7.071068e+000  7.071068e+000  2.000000e+000
      vertex  6.427876e+000  7.660444e+000  2.000000e+000
    endloop
  endfacet
  facet normal  0.000000e+000  0.000000e+000  9.999999e-001
    outer loop
      vertex -8.594156e-015  5.000000e+000  2.000000e+000
      vertex  6.427876e+000  7.660444e+000  2.000000e+000
      vertex  5.735765e+000  8.191521e+000  2.000000e+000
    endloop
  endfacet
  facet normal  0.000000e+000  0.000000e+000  1.000000e+000
    outer loop
      vertex -8.594156e-015  5.000000e+000  2.000000e+000
      vertex  5.735765e+000  8.191521e+000  2.000000e+000
      vertex  5.000000e+000  8.660254e+000  2.000000e+000
    endloop
  endfacet
  facet normal  0.000000e+000  0.000000e+000  1.000000e+000
    outer loop
      vertex -8.594156e-015  5.000000e+000  2.000000e+000
      vertex  5.000000e+000  8.660254e+000  2.000000e+000
      vertex  4.226182e+000  9.063078e+000  2.000000e+000
    endloop
  endfacet
  facet normal  0.000000e+000  0.000000e+000  1.000000e+000
    outer loop
      vertex -8.594156e-015  5.000000e+000  2.000000e+000
      vertex  4.226182e+000  9.063078e+000  2.000000e+000
      vertex  3.420202e+000  9.396926e+000  2.000000e+000
    endloop
  endfacet
  facet normal  0.000000e+000  0.000000e+000  9.999999e-001
    outer loop
      vertex -8.594156e-015  5.000000e+000  2.000000e+000
      vertex  3.420202e+000  9.396926e+000  2.000000e+000
      vertex  2.588191e+000  9.659258e+000  2.000000e+000
    endloop
  endfacet
  facet normal  0.000000e+000  0.000000e+000  1.000000e+000
    outer loop
      vertex -8.594156e-015  5.000000e+000  2.000000e+000
      vertex  2.588191e+000  9.659258e+000  2.000000e+000
      vertex  1.736482e+000  9.848078e+000  2.000000e+000
    endloop
  endfacet
  facet normal  0.000000e+000  0.000000e+000  1.000000e+000
    outer loop
      vertex -8.594156e-015  5.000000e+000  2.000000e+000
      vertex  1.736482e+000  9.848078e+000  2.000000e+000
      vertex  8.715574e-001  9.961947e+000  2.000000e+000
    endloop
  endfacet
  facet normal  0.000000e+000  0.000000e+000  1.000000e+000
    outer loop
      vertex -8.594156e-015  5.000000e+000  2.000000e+000
      vertex  8.715574e-001  9.961947e+000  2.000000e+000
      vertex  1.678664e-015  1.000000e+001  2.000000e+000
    endloop
  endfacet
  facet normal  0.000000e+000  0.000000e+000  1.000000e+000
    outer loop
      vertex  9.063078e+000  4.226182e+000  2.000000e+000
      vertex  8.660254e+000  5.000000e+000  2.000000e+000
      vertex  6.266662e-001  4.960574e+000  2.000000e+000
    endloop
  endfacet
  facet normal  0.000000e+000  0.000000e+000  1.000000e+000
    outer loop
      vertex  9.063078e+000  4.226182e+000  2.000000e+000
      vertex  6.266662e-001  4.960574e+000  2.000000e+000
      vertex  1.243449e+000  4.842916e+000  2.000000e+000
    endloop
  endfacet
  facet normal  0.000000e+000  0.000000e+000  1.000000e+000
    outer loop
      vertex  9.063078e+000  4.226182e+000  2.000000e+000
      vertex  1.243449e+000  4.842916e+000  2.000000e+000
      vertex  1.840623e+000  4.648882e+000  2.000000e+000
    endloop
  endfacet
  facet normal  0.000000e+000  0.000000e+000  9.999999e-001
    outer loop
      vertex  9.063078e+000  4.226182e+000  2.000000e+000
      vertex  1.840623e+000  4.648882e+000  2.000000e+000
      vertex  2.408768e+000  4.381534e+000  2.000000e+000
    endloop
  endfacet
  facet normal  0.000000e+000  0.000000e+000  1.000000e+000
    outer loop
      vertex  9.063078e+000  4.226182e+000  2.000000e+000
      vertex  2.408768e+000  4.381534e+000  2.000000e+000
      vertex  2.938926e+000  4.045085e+000  2.000000e+000
    endloop
  endfacet
  facet normal  -0.000000e+000  0.000000e+000  1.000000e+000
    outer loop
      vertex  9.063078e+000  4.226182e+000  2.000000e+000
      vertex  2.938926e+000  4.045085e+000  2.000000e+000
      vertex  9.396926e+000  3.420202e+000  2.000000e+000
    endloop
  endfacet
  facet normal  0.000000e+000  0.000000e+000  1.000000e+000
    outer loop
      vertex  8.660254e+000 -5.000000e+000  2.000000e+000
      vertex  9.063078e+000 -4.226182e+000  2.000000e+000
      vertex  2.408768e+000 -4.381534e+000  2.000000e+000
    endloop
  endfacet
  facet normal  0.000000e+000  0.000000e+000  1.000000e+000
    outer loop
      vertex  8.660254e+000 -5.000000e+000  2.000000e+000
      vertex  2.408768e+000 -4.381534e+000  2.000000e+000
      vertex  1.840623e+000 -4.648882e+000  2.000000e+000
    endloop
  endfacet
  facet normal  0.000000e+000  0.000000e+000  1.000000e+000
    outer loop
      vertex  8.660254e+000 -5.000000e+000  2.000000e+000
      vertex  1.840623e+000 -4.648882e+000  2.000000e+000
      vertex  1.243449e+000 -4.842916e+000  2.000000e+000
    endloop
  endfacet
  facet normal  0.000000e+000  0.000000e+000  1.000000e+000
    outer loop
      vertex  8.660254e+000 -5.000000e+000  2.000000e+000
      vertex  1.243449e+000 -4.842916e+000  2.000000e+000
      vertex  6.266662e-001 -4.960574e+000  2.000000e+000
    endloop
  endfacet
  facet normal  0.000000e+000  0.000000e+000  1.000000e+000
    outer loop
      vertex  8.660254e+000 -5.000000e+000  2.000000e+000
      vertex  6.266662e-001 -4.960574e+000  2.000000e+000
      vertex -9.184548e-016 -5.000000e+000  2.000000e+000
    endloop
  endfacet
  facet normal  -0.000000e+000  0.000000e+000  1.000000e+000
    outer loop
      vertex  8.660254e+000 -5.000000e+000  2.000000e+000
      vertex -9.184548e-016 -5.000000e+000  2.000000e+000
      vertex -3.219762e-015 -1.000000e+001  2.000000e+000
    endloop
  endfacet
  facet normal  0.000000e+000  0.000000e+000  1.000000e+000
    outer loop
      vertex  8.660254e+000 -5.000000e+000  2.000000e+000
      vertex -3.219762e-015 -1.000000e+001  2.000000e+000
      vertex  8.191521e+000 -5.735765e+000  2.000000e+000
    endloop
  endfacet
  facet normal  0.000000e+000  -0.000000e+000  1.000000e+000
    outer loop
      vertex -3.219762e-015 -1.000000e+001  2.000000e+000
      vertex  8.715574e-001 -9.961947e+000  2.000000e+000
      vertex  1.736482e+000 -9.848078e+000  2.000000e+000
    endloop
  endfacet
  facet normal  0.000000e+000  -0.000000e+000  1.000000e+000
    outer loop
      vertex -3.219762e-015 -1.000000e+001  2.000000e+000
      vertex  1.736482e+000 -9.848078e+000  2.000000e+000
      vertex  2.588191e+000 -9.659258e+000  2.000000e+000
    endloop
  endfacet
  facet normal  0.000000e+000  -0.000000e+000  1.000000e+000
    outer loop
      vertex -3.219762e-015 -1.000000e+001  2.000000e+000
      vertex  2.588191e+000 -9.659258e+000  2.000000e+000
      vertex  3.420202e+000 -9.396926e+000  2.000000e+000
    endloop
  endfacet
  facet normal  0.000000e+000  -0.000000e+000  1.000000e+000
    outer loop
      vertex -3.219762e-015 -1.000000e+001  2.000000e+000
      vertex  3.420202e+000 -9.396926e+000  2.000000e+000
      vertex  4.226182e+000 -9.063078e+000  2.000000e+000
    endloop
  endfacet
  facet normal  0.000000e+000  -0.000000e+000  1.000000e+000
    outer loop
      vertex -3.219762e-015 -1.000000e+001  2.000000e+000
      vertex  4.226182e+000 -9.063078e+000  2.000000e+000
      vertex  5.000000e+000 -8.660254e+000  2.000000e+000
    endloop
  endfacet
  facet normal  0.000000e+000  -0.000000e+000  9.999999e-001
    outer loop
      vertex -3.219762e-015 -1.000000e+001  2.000000e+000
      vertex  5.000000e+000 -8.660254e+000  2.000000e+000
      vertex  5.735765e+000 -8.191521e+000  2.000000e+000
    endloop
  endfacet
  facet normal  0.000000e+000  -0.000000e+000  1.000000e+000
    outer loop
      vertex -3.219762e-015 -1.000000e+001  2.000000e+000
      vertex  5.735765e+000 -8.191521e+000  2.000000e+000
      vertex  6.427876e+000 -7.660444e+000  2.000000e+000
    endloop
  endfacet
  facet normal  0.000000e+000  -0.000000e+000  1.000000e+000
    outer loop
      vertex -3.219762e-015 -1.000000e+001  2.000000e+000
      vertex  6.427876e+000 -7.660444e+000  2.000000e+000
      vertex  7.071068e+000 -7.071068e+000  2.000000e+000
    endloop
  endfacet
  facet normal  0.000000e+000  -0.000000e+000  1.000000e+000
    outer loop
      vertex -3.219762e-015 -1.000000e+001  2.000000e+000
      vertex  7.071068e+000 -7.071068e+000  2.000000e+000
      vertex  7.660444e+000 -6.427876e+000  2.000000e+000
    endloop
  endfacet
  facet normal  0.000000e+000  -0.000000e+000  1.000000e+000
    outer loop
      vertex -3.219762e-015 -1.000000e+001  2.000000e+000
      vertex  7.660444e+000 -6.427876e+000  2.000000e+000
      vertex  8.191521e+000 -5.735765e+000  2.000000e+000
    endloop
  endfacet
  facet normal  0.000000e+000  0.000000e+000  1.000000e+000
    outer loop
      vertex  3.852566e+000  3.187120e+000  2.000000e+000
      vertex  9.659258e+000  2.588191e+000  2.000000e+000
      vertex  3.422735e+000  3.644843e+000  2.000000e+000
    endloop
  endfacet
  facet normal  0.000000e+000  0.000000e+000  1.000000e+000
    outer loop
      vertex  3.422735e+000  3.644843e+000  2.000000e+000
      vertex  9.659258e+000  2.588191e+000  2.000000e+000
      vertex  9.396926e+000  3.420202e+000  2.000000e+000
    endloop
  endfacet
  facet normal  0.000000e+000  0.000000e+000  1.000000e+000
    outer loop
      vertex  3.422735e+000  3.644843e+000  2.000000e+000
      vertex  9.396926e+000  3.420202e+000  2.000000e+000
      vertex  2.938926e+000  4.045085e+000  2.000000e+000
    endloop
  endfacet
  facet normal  0.000000e+000  0.000000e+000  1.000000e+000
    outer loop
      vertex  4.524135e+000  2.128896e+000  2.000000e+000
      vertex  9.848078e+000  1.736482e+000  2.000000e+000
      vertex  4.221640e+000  2.679134e+000  2.000000e+000
    endloop
  endfacet
  facet normal  0.000000e+000  0.000000e+000  1.000000e+000
    outer loop
      vertex  4.221640e+000  2.679134e+000  2.000000e+000
      vertex  9.848078e+000  1.736482e+000  2.000000e+000
      vertex  9.659258e+000  2.588191e+000  2.000000e+000
    endloop
  endfacet
  facet normal  0.000000e+000  0.000000e+000  1.000000e+000
    outer loop
      vertex  4.221640e+000  2.679134e+000  2.000000e+000
      vertex  9.659258e+000  2.588191e+000  2.000000e+000
      vertex  3.852566e+000  3.187120e+000  2.000000e+000
    endloop
  endfacet
  facet normal  -0.000000e+000  0.000000e+000  1.000000e+000
    outer loop
      vertex  9.848078e+000  1.736482e+000  2.000000e+000
      vertex  4.755282e+000  1.545085e+000  2.000000e+000
      vertex  9.961947e+000  8.715574e-001  2.000000e+000
    endloop
  endfacet
  facet normal  0.000000e+000  0.000000e+000  1.000000e+000
    outer loop
      vertex  9.961947e+000  8.715574e-001  2.000000e+000
      vertex  4.755282e+000  1.545085e+000  2.000000e+000
      vertex  4.911436e+000  9.369066e-001  2.000000e+000
    endloop
  endfacet
  facet normal  0.000000e+000  0.000000e+000  1.000000e+000
    outer loop
      vertex  9.961947e+000  8.715574e-001  2.000000e+000
      vertex  4.911436e+000  9.369066e-001  2.000000e+000
      vertex  1.000000e+001 -2.449213e-015  2.000000e+000
    endloop
  endfacet
  facet normal  0.000000e+000  0.000000e+000  1.000000e+000
    outer loop
      vertex  1.000000e+001 -2.449213e-015  2.000000e+000
      vertex  4.911436e+000  9.369066e-001  2.000000e+000
      vertex  4.990134e+000  3.139526e-001  2.000000e+000
    endloop
  endfacet
  facet normal  0.000000e+000  0.000000e+000  1.000000e+000
    outer loop
      vertex  1.000000e+001 -2.449213e-015  2.000000e+000
      vertex  4.990134e+000  3.139526e-001  2.000000e+000
      vertex  4.990134e+000 -3.139526e-001  2.000000e+000
    endloop
  endfacet
  facet normal  -0.000000e+000  0.000000e+000  1.000000e+000
    outer loop
      vertex  1.000000e+001 -2.449213e-015  2.000000e+000
      vertex  4.990134e+000 -3.139526e-001  2.000000e+000
      vertex  9.961947e+000 -8.715574e-001  2.000000e+000
    endloop
  endfacet
  facet normal  0.000000e+000  0.000000e+000  1.000000e+000
    outer loop
      vertex  9.961947e+000 -8.715574e-001  2.000000e+000
      vertex  4.990134e+000 -3.139526e-001  2.000000e+000
      vertex  4.911436e+000 -9.369066e-001  2.000000e+000
    endloop
  endfacet
  facet normal  -0.000000e+000  0.000000e+000  1.000000e+000
    outer loop
      vertex  9.961947e+000 -8.715574e-001  2.000000e+000
      vertex  4.911436e+000 -9.369066e-001  2.000000e+000
      vertex  9.848078e+000 -1.736482e+000  2.000000e+000
    endloop
  endfacet
  facet normal  0.000000e+000  0.000000e+000  1.000000e+000
    outer loop
      vertex  9.848078e+000 -1.736482e+000  2.000000e+000
      vertex  4.911436e+000 -9.369066e-001  2.000000e+000
      vertex  4.755282e+000 -1.545085e+000  2.000000e+000
    endloop
  endfacet
  facet normal  0.000000e+000  0.000000e+000  1.000000e+000
    outer loop
      vertex  9.848078e+000 -1.736482e+000  2.000000e+000
      vertex  4.755282e+000 -1.545085e+000  2.000000e+000
      vertex  9.659258e+000 -2.588191e+000  2.000000e+000
    endloop
  endfacet
  facet normal  0.000000e+000  0.000000e+000  1.000000e+000
    outer loop
      vertex  9.659258e+000 -2.588191e+000  2.000000e+000
      vertex  4.755282e+000 -1.545085e+000  2.000000e+000
      vertex  4.524135e+000 -2.128896e+000  2.000000e+000
    endloop
  endfacet
  facet normal  0.000000e+000  0.000000e+000  1.000000e+000
    outer loop
      vertex  9.659258e+000 -2.588191e+000  2.000000e+000
      vertex  4.524135e+000 -2.128896e+000  2.000000e+000
      vertex  4.221640e+000 -2.679134e+000  2.000000e+000
    endloop
  endfacet
  facet normal  -0.000000e+000  0.000000e+000  1.000000e+000
    outer loop
      vertex  9.659258e+000 -2.588191e+000  2.000000e+000
      vertex  4.221640e+000 -2.679134e+000  2.000000e+000
      vertex  9.396926e+000 -3.420202e+000  2.000000e+000
    endloop
  endfacet
  facet normal  0.000000e+000  0.000000e+000  1.000000e+000
    outer loop
      vertex  9.396926e+000 -3.420202e+000  2.000000e+000
      vertex  4.221640e+000 -2.679134e+000  2.000000e+000
      vertex  3.852566e+000 -3.187120e+000  2.000000e+000
    endloop
  endfacet
  facet normal  0.000000e+000  0.000000e+000  1.000000e+000
    outer loop
      vertex  9.396926e+000 -3.420202e+000  2.000000e+000
      vertex  3.852566e+000 -3.187120e+000  2.000000e+000
      vertex  3.422735e+000 -3.644843e+000  2.000000e+000
    endloop
  endfacet
  facet normal  -0.000000e+000  0.000000e+000  1.000000e+000
    outer loop
      vertex  9.396926e+000 -3.420202e+000  2.000000e+000
      vertex  3.422735e+000 -3.644843e+000  2.000000e+000
      vertex  9.063078e+000 -4.226182e+000  2.000000e+000
    endloop
  endfacet
  facet normal  0.000000e+000  0.000000e+000  1.000000e+000
    outer loop
      vertex  9.063078e+000 -4.226182e+000  2.000000e+000
      vertex  3.422735e+000 -3.644843e+000  2.000000e+000
      vertex  2.938926e+000 -4.045085e+000  2.000000e+000
    endloop
  endfacet
  facet normal  0.000000e+000  0.000000e+000  1.000000e+000
    outer loop
      vertex  9.063078e+000 -4.226182e+000  2.000000e+000
      vertex  2.938926e+000 -4.045085e+000  2.000000e+000
      vertex  2.408768e+000 -4.381534e+000  2.000000e+000
    endloop
  endfacet
  facet normal  4.361886e-002  9.990482e-001  0.000000e+000
    outer loop
      vertex  1.678664e-015  1.000000e+001  0.000000e+000
      vertex  1.678664e-015  1.000000e+001  2.000000e+000
      vertex  8.715574e-001  9.961947e+000  0.000000e+000
    endloop
  endfacet
  facet normal  4.361886e-002  9.990482e-001  -0.000000e+000
    outer loop
      vertex  8.715574e-001  9.961947e+000  0.000000e+000
      vertex  1.678664e-015  1.000000e+001  2.000000e+000
      vertex  8.715574e-001  9.961947e+000  2.000000e+000
    endloop
  endfacet
  facet normal  1.305264e-001  9.914448e-001  0.000000e+000
    outer loop
      vertex  8.715574e-001  9.961947e+000  0.000000e+000
      vertex  8.715574e-001  9.961947e+000  2.000000e+000
      vertex  1.736482e+000  9.848078e+000  0.000000e+000
    endloop
  endfacet
  facet normal  1.305264e-001  9.914448e-001  -0.000000e+000
    outer loop
      vertex  1.736482e+000  9.848078e+000  0.000000e+000
      vertex  8.715574e-001  9.961947e+000  2.000000e+000
      vertex  1.736482e+000  9.848078e+000  2.000000e+000
    endloop
  endfacet
  facet normal  2.164403e-001  9.762958e-001  0.000000e+000
    outer loop
      vertex  1.736482e+000  9.848078e+000  0.000000e+000
      vertex  1.736482e+000  9.848078e+000  2.000000e+000
      vertex  2.588191e+000  9.659258e+000  0.000000e+000
    endloop
  endfacet
  facet normal  2.164403e-001  9.762958e-001  -0.000000e+000
    outer loop
      vertex  2.588191e+000  9.659258e+000  0.000000e+000
      vertex  1.736482e+000  9.848078e+000  2.000000e+000
      vertex  2.588191e+000  9.659258e+000  2.000000e+000
    endloop
  endfacet
  facet normal  3.007057e-001  9.537170e-001  0.000000e+000
    outer loop
      vertex  2.588191e+000  9.659258e+000  0.000000e+000
      vertex  2.588191e+000  9.659258e+000  2.000000e+000
      vertex  3.420202e+000  9.396926e+000  0.000000e+000
    endloop
  endfacet
  facet normal  3.007057e-001  9.537170e-001  -0.000000e+000
    outer loop
      vertex  3.420202e+000  9.396926e+000  0.000000e+000
      vertex  2.588191e+000  9.659258e+000  2.000000e+000
      vertex  3.420202e+000  9.396926e+000  2.000000e+000
    endloop
  endfacet
  facet normal  3.826832e-001  9.238796e-001  0.000000e+000
    outer loop
      vertex  3.420202e+000  9.396926e+000  0.000000e+000
      vertex  3.420202e+000  9.396926e+000  2.000000e+000
      vertex  4.226182e+000  9.063078e+000  0.000000e+000
    endloop
  endfacet
  facet normal  3.826832e-001  9.238796e-001  -0.000000e+000
    outer loop
      vertex  4.226182e+000  9.063078e+000  0.000000e+000
      vertex  3.420202e+000  9.396926e+000  2.000000e+000
      vertex  4.226182e+000  9.063078e+000  2.000000e+000
    endloop
  endfacet
  facet normal  4.617482e-001  8.870111e-001  0.000000e+000
    outer loop
      vertex  4.226182e+000  9.063078e+000  0.000000e+000
      vertex  4.226182e+000  9.063078e+000  2.000000e+000
      vertex  5.000000e+000  8.660254e+000  0.000000e+000
    endloop
  endfacet
  facet normal  4.617482e-001  8.870111e-001  -0.000000e+000
    outer loop
      vertex  5.000000e+000  8.660254e+000  0.000000e+000
      vertex  4.226182e+000  9.063078e+000  2.000000e+000
      vertex  5.000000e+000  8.660254e+000  2.000000e+000
    endloop
  endfacet
  facet normal  5.372997e-001  8.433914e-001  0.000000e+000
    outer loop
      vertex  5.000000e+000  8.660254e+000  0.000000e+000
      vertex  5.000000e+000  8.660254e+000  2.000000e+000
      vertex  5.735765e+000  8.191521e+000  0.000000e+000
    endloop
  endfacet
  facet normal  5.372997e-001  8.433914e-001  -0.000000e+000
    outer loop
      vertex  5.735765e+000  8.191521e+000  0.000000e+000
      vertex  5.000000e+000  8.660254e+000  2.000000e+000
      vertex  5.735765e+000  8.191521e+000  2.000000e+000
    endloop
  endfacet
  facet normal  6.087618e-001  7.933530e-001  0.000000e+000
    outer loop
      vertex  5.735765e+000  8.191521e+000  0.000000e+000
      vertex  5.735765e+000  8.191521e+000  2.000000e+000
      vertex  6.427876e+000  7.660444e+000  0.000000e+000
    endloop
  endfacet
  facet normal  6.087618e-001  7.933530e-001  -0.000000e+000
    outer loop
      vertex  6.427876e+000  7.660444e+000  0.000000e+000
      vertex  5.735765e+000  8.191521e+000  2.000000e+000
      vertex  6.427876e+000  7.660444e+000  2.000000e+000
    endloop
  endfacet
  facet normal  6.755900e-001  7.372775e-001  0.000000e+000
    outer loop
      vertex  6.427876e+000  7.660444e+000  0.000000e+000
      vertex  6.427876e+000  7.660444e+000  2.000000e+000
      vertex  7.071068e+000  7.071068e+000  0.000000e+000
    endloop
  endfacet
  facet normal  6.755900e-001  7.372775e-001  -0.000000e+000
    outer loop
      vertex  7.071068e+000  7.071068e+000  0.000000e+000
      vertex  6.427876e+000  7.660444e+000  2.000000e+000
      vertex  7.071068e+000  7.071068e+000  2.000000e+000
    endloop
  endfacet
  facet normal  7.372775e-001  6.755900e-001  0.000000e+000
    outer loop
      vertex  7.071068e+000  7.071068e+000  0.000000e+000
      vertex  7.071068e+000  7.071068e+000  2.000000e+000
      vertex  7.660444e+000  6.427876e+000  0.000000e+000
    endloop
  endfacet
  facet normal  7.372775e-001  6.755900e-001  -0.000000e+000
    outer loop
      vertex  7.660444e+000  6.427876e+000  0.000000e+000
      vertex  7.071068e+000  7.071068e+000  2.000000e+000
      vertex  7.660444e+000  6.427876e+000  2.000000e+000
    endloop
  endfacet
  facet normal  7.933530e-001  6.087618e-001  0.000000e+000
    outer loop
      vertex  7.660444e+000  6.427876e+000  0.000000e+000
      vertex  7.660444e+000  6.427876e+000  2.000000e+000
      vertex  8.191521e+000  5.735765e+000  0.000000e+000
    endloop
  endfacet
  facet normal  7.933530e-001  6.087618e-001  -0.000000e+000
    outer loop
      vertex  8.191521e+000  5.735765e+000  0.000000e+000
      vertex  7.660444e+000  6.427876e+000  2.000000e+000
      vertex  8.191521e+000  5.735765e+000  2.000000e+000
    endloop
  endfacet
  facet normal  8.433914e-001  5.372997e-001  0.000000e+000
    outer loop
      vertex  8.191521e+000  5.735765e+000  0.000000e+000
      vertex  8.191521e+000  5.735765e+000  2.000000e+000
      vertex  8.660254e+000  5.000000e+000  0.000000e+000
    endloop
  endfacet
  facet normal  8.433914e-001  5.372997e-001  -0.000000e+000
    outer loop
      vertex  8.660254e+000  5.000000e+000  0.000000e+000
      vertex  8.191521e+000  5.735765e+000  2.000000e+000
      vertex  8.660254e+000  5.000000e+000  2.000000e+000
    endloop
  endfacet
  facet normal  8.870111e-001  4.617482e-001  0.000000e+000
    outer loop
      vertex  8.660254e+000  5.000000e+000  0.000000e+000
      vertex  8.660254e+000  5.000000e+000  2.000000e+000
      vertex  9.063078e+000  4.226182e+000  0.000000e+000
    endloop
  endfacet
  facet normal  8.870111e-001  4.617482e-001  -0.000000e+000
    outer loop
      vertex  9.063078e+000  4.226182e+000  0.000000e+000
      vertex  8.660254e+000  5.000000e+000  2.000000e+000
      vertex  9.063078e+000  4.226182e+000  2.000000e+000
    endloop
  endfacet
  facet normal  9.238796e-001  3.826832e-001  0.000000e+000
    outer loop
      vertex  9.063078e+000  4.226182e+000  0.000000e+000
      vertex  9.063078e+000  4.226182e+000  2.000000e+000
      vertex  9.396926e+000  3.420202e+000  0.000000e+000
    endloop
  endfacet
  facet normal  9.238796e-001  3.826832e-001  -0.000000e+000
    outer loop
      vertex  9.396926e+000  3.420202e+000  0.000000e+000
      vertex  9.063078e+000  4.226182e+000  2.000000e+000
      vertex  9.396926e+000  3.420202e+000  2.000000e+000
    endloop
  endfacet
  facet normal  9.537170e-001  3.007057e-001  0.000000e+000
    outer loop
      vertex  9.396926e+000  3.420202e+000  0.000000e+000
      vertex  9.396926e+000  3.420202e+000  2.000000e+000
      vertex  9.659258e+000  2.588191e+000  0.000000e+000
    endloop
  endfacet
  facet normal  9.537170e-001  3.007057e-001  -0.000000e+000
    outer loop
      vertex  9.659258e+000  2.588191e+000  0.000000e+000
      vertex  9.396926e+000  3.420202e+000  2.000000e+000
      vertex  9.659258e+000  2.588191e+000  2.000000e+000
    endloop
  endfacet
  facet normal  9.762958e-001  2.164403e-001  0.000000e+000
    outer loop
      vertex  9.659258e+000  2.588191e+000  0.000000e+000
      vertex  9.659258e+000  2.588191e+000  2.000000e+000
      vertex  9.848078e+000  1.736482e+000  0.000000e+000
    endloop
  endfacet
  facet normal  9.762958e-001  2.164403e-001  -0.000000e+000
    outer loop
      vertex  9.848078e+000  1.736482e+000  0.000000e+000
      vertex  9.659258e+000  2.588191e+000  2.000000e+000
      vertex  9.848078e+000  1.736482e+000  2.000000e+000
    endloop
  endfacet
  facet normal  9.914448e-001  1.305264e-001  0.000000e+000
    outer loop
      vertex  9.848078e+000  1.736482e+000  0.000000e+000
      vertex  9.848078e+000  1.736482e+000  2.000000e+000
      vertex  9.961947e+000  8.715574e-001  0.000000e+000
    endloop
  endfacet
  facet normal  9.914448e-001  1.305264e-001  -0.000000e+000
    outer loop
      vertex  9.961947e+000  8.715574e-001  0.000000e+000
      vertex  9.848078e+000  1.736482e+000  2.000000e+000
      vertex  9.961947e+000  8.715574e-001  2.000000e+000
    endloop
  endfacet
  facet normal  9.990482e-001  4.361886e-002  0.000000e+000
    outer loop
      vertex  9.961947e+000  8.715574e-001  0.000000e+000
      vertex  9.961947e+000  8.715574e-001  2.000000e+000
      vertex  1.000000e+001 -2.449213e-015  0.000000e+000
    endloop
  endfacet
  facet normal  9.990482e-001  4.361886e-002  -0.000000e+000
    outer loop
      vertex  1.000000e+001 -2.449213e-015  0.000000e+000
      vertex  9.961947e+000  8.715574e-001  2.000000e+000
      vertex  1.000000e+001 -2.449213e-015  2.000000e+000
    endloop
  endfacet
  facet normal  9.990482e-001 -4.361886e-002  0.000000e+000
    outer loop
      vertex  1.000000e+001 -2.449213e-015  0.000000e+000
      vertex  1.000000e+001 -2.449213e-015  2.000000e+000
      vertex  9.961947e+000 -8.715574e-001  0.000000e+000
    endloop
  endfacet
  facet normal  9.990482e-001 -4.361886e-002  0.000000e+000
    outer loop
      vertex  9.961947e+000 -8.715574e-001  0.000000e+000
      vertex  1.000000e+001 -2.449213e-015  2.000000e+000
      vertex  9.961947e+000 -8.715574e-001  2.000000e+000
    endloop
  endfacet
  facet normal  9.914448e-001 -1.305264e-001  0.000000e+000
    outer loop
      vertex  9.961947e+000 -8.715574e-001  0.000000e+000
      vertex  9.961947e+000 -8.715574e-001  2.000000e+000
      vertex  9.848078e+000 -1.736482e+000  0.000000e+000
    endloop
  endfacet
  facet normal  9.914448e-001 -1.305264e-001  0.000000e+000
    outer loop
      vertex  9.848078e+000 -1.736482e+000  0.000000e+000
      vertex  9.961947e+000 -8.715574e-001  2.000000e+000
      vertex  9.848078e+000 -1.736482e+000  2.000000e+000
    endloop
  endfacet
  facet normal  9.762958e-001 -2.164403e-001  0.000000e+000
    outer loop
      vertex  9.848078e+000 -1.736482e+000  0.000000e+000
      vertex  9.848078e+000 -1.736482e+000  2.000000e+000
      vertex  9.659258e+000 -2.588191e+000  0.000000e+000
    endloop
  endfacet
  facet normal  9.762958e-001 -2.164403e-001  0.000000e+000
    outer loop
      vertex  9.659258e+000 -2.588191e+000  0.000000e+000
      vertex  9.848078e+000 -1.736482e+000  2.000000e+000
      vertex  9.659258e+000 -2.588191e+000  2.000000e+000
    endloop
  endfacet
  facet normal  9.537170e-001 -3.007057e-001  0.000000e+000
    outer loop
      vertex  9.659258e+000 -2.588191e+000  0.000000e+000
      vertex  9.659258e+000 -2.588191e+000  2.000000e+000
      vertex  9.396926e+000 -3.420202e+000  0.000000e+000
    endloop
  endfacet
  facet normal  9.537170e-001 -3.007057e-001  0.000000e+000
    outer loop
      vertex  9.396926e+000 -3.420202e+000  0.000000e+000
      vertex  9.659258e+000 -2.588191e+000  2.000000e+000
      vertex  9.396926e+000 -3.420202e+000  2.000000e+000
    endloop
  endfacet
  facet normal  9.238796e-001 -3.826832e-001  0.000000e+000
    outer loop
      vertex  9.396926e+000 -3.420202e+000  0.000000e+000
      vertex  9.396926e+000 -3.420202e+000  2.000000e+000
      vertex  9.063078e+000 -4.226182e+000  0.000000e+000
    endloop
  endfacet
  facet normal  9.238796e-001 -3.826832e-001  0.000000e+000
    outer loop
      vertex  9.063078e+000 -4.226182e+000  0.000000e+000
      vertex  9.396926e+000 -3.420202e+000  2.000000e+000
      vertex  9.063078e+000 -4.226182e+000  2.000000e+000
    endloop
  endfacet
  facet normal  8.870111e-001 -4.617482e-001  0.000000e+000
    outer loop
      vertex  9.063078e+000 -4.226182e+000  0.000000e+000
      vertex  9.063078e+000 -4.226182e+000  2.000000e+000
      vertex  8.660254e+000 -5.000000e+000  0.000000e+000
    endloop
  endfacet
  facet normal  8.870111e-001 -4.617482e-001  0.000000e+000
    outer loop
      vertex  8.660254e+000 -5.000000e+000  0.000000e+000
      vertex  9.063078e+000 -4.226182e+000  2.000000e+000
      vertex  8.660254e+000 -5.000000e+000  2.000000e+000
    endloop
  endfacet
  facet normal  8.433914e-001 -5.372997e-001  0.000000e+000
    outer loop
      vertex  8.660254e+000 -5.000000e+000  0.000000e+000
      vertex  8.660254e+000 -5.000000e+000  2.000000e+000
      vertex  8.191521e+000 -5.735765e+000  0.000000e+000
    endloop
  endfacet
  facet normal  8.433914e-001 -5.372997e-001  0.000000e+000
    outer loop
      vertex  8.191521e+000 -5.735765e+000  0.000000e+000
      vertex  8.660254e+000 -5.000000e+000  2.000000e+000
      vertex  8.191521e+000 -5.735765e+000  2.000000e+000
    endloop
  endfacet
  facet normal  7.933530e-001 -6.087618e-001  0.000000e+000
    outer loop
      vertex  8.191521e+000 -5.735765e+000  0.000000e+000
      vertex  8.191521e+000 -5.735765e+000  2.000000e+000
      vertex  7.660444e+000 -6.427876e+000  0.000000e+000
    endloop
  endfacet
  facet normal  7.933530e-001 -6.087618e-001  0.000000e+000
    outer loop
      vertex  7.660444e+000 -6.427876e+000  0.000000e+000
      vertex  8.191521e+000 -5.735765e+000  2.000000e+000
      vertex  7.660444e+000 -6.427876e+000  2.000000e+000
    endloop
  endfacet
  facet normal  7.372775e-001 -6.755900e-001  0.000000e+000
    outer loop
      vertex  7.660444e+000 -6.427876e+000  0.000000e+000
      vertex  7.660444e+000 -6.427876e+000  2.000000e+000
      vertex  7.071068e+000 -7.071068e+000  0.000000e+000
    endloop
  endfacet
  facet normal  7.372775e-001 -6.755900e-001  0.000000e+000
    outer loop
      vertex  7.071068e+000 -7.071068e+000  0.000000e+000
      vertex  7.660444e+000 -6.427876e+000  2.000000e+000
      vertex  7.071068e+000 -7.071068e+000  2.000000e+000
    endloop
  endfacet
  facet normal  6.755900e-001 -7.372775e-001  0.000000e+000
    outer loop
      vertex  7.071068e+000 -7.071068e+000  0.000000e+000
      vertex  7.071068e+000 -7.071068e+000  2.000000e+000
      vertex  6.427876e+000 -7.660444e+000  0.000000e+000
    endloop
  endfacet
  facet normal  6.755900e-001 -7.372775e-001  0.000000e+000
    outer loop
      vertex  6.427876e+000 -7.660444e+000  0.000000e+000
      vertex  7.071068e+000 -7.071068e+000  2.000000e+000
      vertex  6.427876e+000 -7.660444e+000  2.000000e+000
    endloop
  endfacet
  facet normal  6.087618e-001 -7.933530e-001  0.000000e+000
    outer loop
      vertex  6.427876e+000 -7.660444e+000  0.000000e+000
      vertex  6.427876e+000 -7.660444e+000  2.000000e+000
      vertex  5.735765e+000 -8.191521e+000  0.000000e+000
    endloop
  endfacet
  facet normal  6.087618e-001 -7.933530e-001  0.000000e+000
    outer loop
      vertex  5.735765e+000 -8.191521e+000  0.000000e+000
      vertex  6.427876e+000 -7.660444e+000  2.000000e+000
      vertex  5.735765e+000 -8.191521e+000  2.000000e+000
    endloop
  endfacet
  facet normal  5.372997e-001 -8.433914e-001  0.000000e+000
    outer loop
      vertex  5.735765e+000 -8.191521e+000  0.000000e+000
      vertex  5.735765e+000 -8.191521e+000  2.000000e+000
      vertex  5.000000e+000 -8.660254e+000  0.000000e+000
    endloop
  endfacet
  facet normal  5.372997e-001 -8.433914e-001  0.000000e+000
    outer loop
      vertex  5.000000e+000 -8.660254e+000  0.000000e+000
      vertex  5.735765e+000 -8.191521e+000  2.000000e+000
      vertex  5.000000e+000 -8.660254e+000  2.000000e+000
    endloop
  endfacet
  facet normal  4.617482e-001 -8.870111e-001  0.000000e+000
    outer loop
      vertex  5.000000e+000 -8.660254e+000  0.000000e+000
      vertex  5.000000e+000 -8.660254e+000  2.000000e+000
      vertex  4.226182e+000 -9.063078e+000  0.000000e+000
    endloop
  endfacet
  facet normal  4.617482e-001 -8.870111e-001  0.000000e+000
    outer loop
      vertex  4.226182e+000 -9.063078e+000  0.000000e+000
      vertex  5.000000e+000 -8.660254e+000  2.000000e+000
      vertex  4.226182e+000 -9.063078e+000  2.000000e+000
    endloop
  endfacet
  facet normal  3.826832e-001 -9.238796e-001  0.000000e+000
    outer loop
      vertex  4.226182e+000 -9.063078e+000  0.000000e+000
      vertex  4.226182e+000 -9.063078e+000  2.000000e+000
      vertex  3.420202e+000 -9.396926e+000  0.000000e+000
    endloop
  endfacet
  facet normal  3.826832e-001 -9.238796e-001  0.000000e+000
    outer loop
      vertex  3.420202e+000 -9.396926e+000  0.000000e+000
      vertex  4.226182e+000 -9.063078e+000  2.000000e+000
      vertex  3.420202e+000 -9.396926e+000  2.000000e+000
    endloop
  endfacet
  facet normal  3.007057e-001 -9.537170e-001  0.000000e+000
    outer loop
      vertex  3.420202e+000 -9.396926e+000  0.000000e+000
      vertex  3.420202e+000 -9.396926e+000  2.000000e+000
      vertex  2.588191e+000 -9.659258e+000  0.000000e+000
    endloop
  endfacet
  facet normal  3.007057e-001 -9.537170e-001  0.000000e+000
    outer loop
      vertex  2.588191e+000 -9.659258e+000  0.000000e+000
      vertex  3.420202e+000 -9.396926e+000  2.000000e+000
      vertex  2.588191e+000 -9.659258e+000  2.000000e+000
    endloop
  endfacet
  facet normal  2.164403e-001 -9.762958e-001  0.000000e+000
    outer loop
      vertex  2.588191e+000 -9.659258e+000  0.000000e+000
      vertex  2.588191e+000 -9.659258e+000  2.000000e+000
      vertex  1.736482e+000 -9.848078e+000  0.000000e+000
    endloop
  endfacet
  facet normal  2.164403e-001 -9.762958e-001  0.000000e+000
    outer loop
      vertex  1.736482e+000 -9.848078e+000  0.000000e+000
      vertex  2.588191e+000 -9.659258e+000  2.000000e+000
      vertex  1.736482e+000 -9.848078e+000  2.000000e+000
    endloop
  endfacet
  facet normal  1.305264e-001 -9.914448e-001  0.000000e+000
    outer loop
      vertex  1.736482e+000 -9.848078e+000  0.000000e+000
      vertex  1.736482e+000 -9.848078e+000  2.000000e+000
      vertex  8.715574e-001 -9.961947e+000  0.000000e+000
    endloop
  endfacet
  facet normal  1.305264e-001 -9.914448e-001  0.000000e+000
    outer loop
      vertex  8.715574e-001 -9.961947e+000  0.000000e+000
      vertex  1.736482e+000 -9.848078e+000  2.000000e+000
      vertex  8.715574e-001 -9.961947e+000  2.000000e+000
    endloop
  endfacet
  facet normal  4.361886e-002 -9.990482e-001  0.000000e+000
    outer loop
      vertex  8.715574e-001 -9.961947e+000  0.000000e+000
      vertex  8.715574e-001 -9.961947e+000  2.000000e+000
      vertex -3.219762e-015 -1.000000e+001  0.000000e+000
    endloop
  endfacet
  facet normal  4.361886e-002 -9.990482e-001  0.000000e+000
    outer loop
      vertex -3.219762e-015 -1.000000e+001  0.000000e+000
      vertex  8.715574e-001 -9.961947e+000  2.000000e+000
      vertex -3.219762e-015 -1.000000e+001  2.000000e+000
    endloop
  endfacet
endsolid CATIA STL
